solid case_emg
facet normal 0.0 1.0 0.0
  outer loop
    vertex 92.50000000000001 30.499999999999996 12.499999999999998
    vertex 93.00000000000001 30.499999999999996 11.699999999999998
    vertex 92.50000000000001 30.499999999999996 11.699999999999998
  endloop
endfacet
facet normal 0.0 1.0 0.0
  outer loop
    vertex 93.00000000000001 30.499999999999996 11.699999999999998
    vertex 92.50000000000001 30.499999999999996 12.499999999999998
    vertex 93.00000000000001 30.499999999999996 12.499999999999998
  endloop
endfacet
facet normal 1.0 0.0 0.0
  outer loop
    vertex 94.50000000000001 50.0 0.0
    vertex 94.50000000000001 3.524958103184872e-16 14.499999999999998
    vertex 94.50000000000001 3.524958103184872e-16 0.0
  endloop
endfacet
facet normal 1.0 0.0 0.0
  outer loop
    vertex 94.50000000000001 3.524958103184872e-16 14.499999999999998
    vertex 94.50000000000001 50.0 0.0
    vertex 94.50000000000001 32.5 7.5
  endloop
endfacet
facet normal 1.0 0.0 0.0
  outer loop
    vertex 94.50000000000001 32.5 7.5
    vertex 94.50000000000001 50.0 0.0
    vertex 94.50000000000001 47.5 7.5
  endloop
endfacet
facet normal 1.0 0.0 0.0
  outer loop
    vertex 94.50000000000001 47.5 7.5
    vertex 94.50000000000001 50.0 0.0
    vertex 94.50000000000001 47.5 9.799999999999999
  endloop
endfacet
facet normal 1.0 0.0 0.0
  outer loop
    vertex 94.50000000000001 3.524958103184872e-16 14.499999999999998
    vertex 94.50000000000001 32.5 9.799999999999999
    vertex 94.50000000000001 50.0 14.499999999999998
  endloop
endfacet
facet normal 1.0 0.0 0.0
  outer loop
    vertex 94.50000000000001 32.5 9.799999999999999
    vertex 94.50000000000001 3.524958103184872e-16 14.499999999999998
    vertex 94.50000000000001 32.5 7.5
  endloop
endfacet
facet normal 1.0 0.0 0.0
  outer loop
    vertex 94.50000000000001 50.0 14.499999999999998
    vertex 94.50000000000001 32.5 9.799999999999999
    vertex 94.50000000000001 47.5 9.799999999999999
  endloop
endfacet
facet normal 1.0 0.0 0.0
  outer loop
    vertex 94.50000000000001 50.0 14.499999999999998
    vertex 94.50000000000001 47.5 9.799999999999999
    vertex 94.50000000000001 50.0 0.0
  endloop
endfacet
facet normal 1.0 0.0 0.0
  outer loop
    vertex 93.7 49.2 14.499999999999998
    vertex 93.7 0.8000000000000005 16.499999999999996
    vertex 93.7 0.8000000000000005 14.499999999999998
  endloop
endfacet
facet normal 1.0 0.0 0.0
  outer loop
    vertex 93.7 0.8000000000000005 16.499999999999996
    vertex 93.7 49.2 14.499999999999998
    vertex 93.7 49.2 16.499999999999996
  endloop
endfacet
facet normal -1.0208023466236739e-15 1.0 1.595003666599492e-16
  outer loop
    vertex 3.837180070921722e-15 15.499999999999996 14.499999999999998
    vertex 1.5000000000000036 15.5 10.999999999999998
    vertex 3.572808213182857e-15 15.5 10.999999999999998
  endloop
endfacet
facet normal -1.0208023466236739e-15 1.0 1.595003666599492e-16
  outer loop
    vertex 1.5000000000000036 15.5 10.999999999999998
    vertex 3.837180070921722e-15 15.499999999999996 14.499999999999998
    vertex 0.8000000000000044 15.5 14.499999999999998
  endloop
endfacet
facet normal -1.0208023466236739e-15 1.0 1.595003666599492e-16
  outer loop
    vertex 1.5000000000000036 15.5 10.999999999999998
    vertex 0.8000000000000044 15.5 14.499999999999998
    vertex 1.5000000000000036 15.5 15.499999999999996
  endloop
endfacet
facet normal -1.0208023466236739e-15 1.0 1.595003666599492e-16
  outer loop
    vertex 1.5000000000000036 15.5 15.499999999999996
    vertex 0.8000000000000044 15.5 14.499999999999998
    vertex 0.8000000000000044 15.5 15.499999999999996
  endloop
endfacet
facet normal 0.0 0.0 1.0
  outer loop
    vertex 92.00000000000001 48.5 11.0
    vertex 83.00000000000001 50.0 11.0
    vertex 83.00000000000001 48.5 11.0
  endloop
endfacet
facet normal 0.0 0.0 1.0
  outer loop
    vertex 83.00000000000001 50.0 11.0
    vertex 92.00000000000001 48.5 11.0
    vertex 92.00000000000001 50.0 11.0
  endloop
endfacet
facet normal 0.0 1.0 0.0
  outer loop
    vertex 6.653557795219772e-15 50.0 14.499999999999998
    vertex 94.50000000000001 50.0 0.0
    vertex 6.653557795219772e-15 50.0 0.0
  endloop
endfacet
facet normal 0.0 1.0 0.0
  outer loop
    vertex 94.50000000000001 50.0 0.0
    vertex 6.653557795219772e-15 50.0 14.499999999999998
    vertex 83.00000000000001 50.0 11.0
  endloop
endfacet
facet normal 0.0 1.0 0.0
  outer loop
    vertex 83.00000000000001 50.0 11.0
    vertex 6.653557795219772e-15 50.0 14.499999999999998
    vertex 83.00000000000001 50.0 14.499999999999998
  endloop
endfacet
facet normal 0.0 1.0 0.0
  outer loop
    vertex 94.50000000000001 50.0 0.0
    vertex 92.00000000000001 50.0 11.0
    vertex 94.50000000000001 50.0 14.499999999999998
  endloop
endfacet
facet normal 0.0 1.0 0.0
  outer loop
    vertex 92.00000000000001 50.0 11.0
    vertex 94.50000000000001 50.0 0.0
    vertex 83.00000000000001 50.0 11.0
  endloop
endfacet
facet normal 0.0 1.0 0.0
  outer loop
    vertex 94.50000000000001 50.0 14.499999999999998
    vertex 92.00000000000001 50.0 11.0
    vertex 92.00000000000001 50.0 14.499999999999998
  endloop
endfacet
facet normal -1.0 0.0 0.0
  outer loop
    vertex 92.00000000000001 49.2 14.999999999999998
    vertex 92.00000000000001 48.5 11.0
    vertex 92.00000000000001 48.5 14.999999999999998
  endloop
endfacet
facet normal -1.0 0.0 0.0
  outer loop
    vertex 92.00000000000001 48.5 11.0
    vertex 92.00000000000001 49.2 14.999999999999998
    vertex 92.00000000000001 49.2 14.499999999999998
  endloop
endfacet
facet normal -1.0 0.0 0.0
  outer loop
    vertex 92.00000000000001 48.5 11.0
    vertex 92.00000000000001 49.2 14.499999999999998
    vertex 92.00000000000001 50.0 11.0
  endloop
endfacet
facet normal -1.0 0.0 0.0
  outer loop
    vertex 92.00000000000001 50.0 11.0
    vertex 92.00000000000001 49.2 14.499999999999998
    vertex 92.00000000000001 50.0 14.499999999999998
  endloop
endfacet
facet normal 3.728021064363864e-18 -1.0 8.466984351091918e-34
  outer loop
    vertex 94.50000000000001 3.524958103184872e-16 14.499999999999998
    vertex 6.653557795219772e-15 0.0 0.0
    vertex 94.50000000000001 3.524958103184872e-16 0.0
  endloop
endfacet
facet normal 3.728021064363864e-18 -1.0 8.466984351091918e-34
  outer loop
    vertex 6.653557795219772e-15 0.0 0.0
    vertex 94.50000000000001 3.524958103184872e-16 14.499999999999998
    vertex 6.653557795219772e-15 0.0 14.499999999999998
  endloop
endfacet
facet normal -7.561520422128414e-19 -5.980258484550908e-18 1.0
  outer loop
    vertex 61.000000000000014 3.499999999999998 1.9999999999999991
    vertex 3.500000000000006 46.5 1.9999999999999998
    vertex 3.500000000000006 3.499999999999998 1.9999999999999998
  endloop
endfacet
facet normal -7.561520422128414e-19 -5.980258484550908e-18 1.0
  outer loop
    vertex 3.500000000000006 46.5 1.9999999999999998
    vertex 61.000000000000014 3.499999999999998 1.9999999999999991
    vertex 68.29999999999995 46.5 1.9999999999999998
  endloop
endfacet
facet normal -7.561520422128414e-19 -5.980258484550908e-18 1.0
  outer loop
    vertex 93.00000000000001 1.5 1.9999999999999998
    vertex 61.000000000000014 3.499999999999998 1.9999999999999991
    vertex 61.000000000000014 1.5 1.9999999999999996
  endloop
endfacet
facet normal -7.561520422128414e-19 -5.980258484550908e-18 1.0
  outer loop
    vertex 61.000000000000014 3.499999999999998 1.9999999999999991
    vertex 93.00000000000001 1.5 1.9999999999999998
    vertex 68.29999999999995 46.5 1.9999999999999998
  endloop
endfacet
facet normal -7.561520422128414e-19 -5.980258484550908e-18 1.0
  outer loop
    vertex 68.29999999999995 46.5 1.9999999999999998
    vertex 93.00000000000001 1.5 1.9999999999999998
    vertex 68.29999999999995 48.5 1.9999999999999998
  endloop
endfacet
facet normal -7.561520422128414e-19 -5.980258484550908e-18 1.0
  outer loop
    vertex 68.29999999999995 48.5 1.9999999999999998
    vertex 93.00000000000001 1.5 1.9999999999999998
    vertex 91.50000000000001 21.5 1.9999999999999998
  endloop
endfacet
facet normal -7.561520422128414e-19 -5.980258484550908e-18 1.0
  outer loop
    vertex 91.50000000000001 21.5 1.9999999999999998
    vertex 93.00000000000001 1.5 1.9999999999999998
    vertex 93.00000000000001 21.5 1.9999999999999998
  endloop
endfacet
facet normal -7.561520422128414e-19 -5.980258484550908e-18 1.0
  outer loop
    vertex 68.29999999999995 48.5 1.9999999999999998
    vertex 91.50000000000001 30.5 1.9999999999999998
    vertex 93.00000000000001 48.5 1.9999999999999998
  endloop
endfacet
facet normal -7.561520422128414e-19 -5.980258484550908e-18 1.0
  outer loop
    vertex 91.50000000000001 30.5 1.9999999999999998
    vertex 68.29999999999995 48.5 1.9999999999999998
    vertex 91.50000000000001 21.5 1.9999999999999998
  endloop
endfacet
facet normal -7.561520422128414e-19 -5.980258484550908e-18 1.0
  outer loop
    vertex 93.00000000000001 48.5 1.9999999999999998
    vertex 91.50000000000001 30.5 1.9999999999999998
    vertex 93.00000000000001 30.499999999999996 1.9999999999999998
  endloop
endfacet
facet normal -2.0416046932473473e-15 -1.0 3.1900073331989797e-16
  outer loop
    vertex 1.5 23.99999999999999 15.5
    vertex 0.0 23.99999999999999 11.0
    vertex 1.5 23.99999999999999 11.0
  endloop
endfacet
facet normal -2.0416046932473473e-15 -1.0 3.1900073331989797e-16
  outer loop
    vertex 0.0 23.99999999999999 11.0
    vertex 1.5 23.99999999999999 15.5
    vertex 0.8000000000000006 23.99999999999999 14.499999999999998
  endloop
endfacet
facet normal -2.0416046932473473e-15 -1.0 3.1900073331989797e-16
  outer loop
    vertex 0.8000000000000006 23.99999999999999 14.499999999999998
    vertex 1.5 23.99999999999999 15.5
    vertex 0.8000000000000006 23.99999999999999 15.5
  endloop
endfacet
facet normal -2.0416046932473473e-15 -1.0 3.1900073331989797e-16
  outer loop
    vertex 2.6437185773886536e-16 23.999999999999996 14.499999999999998
    vertex 0.0 23.99999999999999 11.0
    vertex 0.8000000000000006 23.99999999999999 14.499999999999998
  endloop
endfacet
facet normal 1.0 0.0 0.0
  outer loop
    vertex 3.500000000000006 46.5 1.9999999999999998
    vertex 3.500000000000006 3.499999999999998 9.5
    vertex 3.500000000000006 3.499999999999998 1.9999999999999998
  endloop
endfacet
facet normal 1.0 0.0 0.0
  outer loop
    vertex 3.500000000000006 3.499999999999998 9.5
    vertex 3.500000000000006 46.5 1.9999999999999998
    vertex 3.500000000000006 46.5 9.5
  endloop
endfacet
facet normal 0.0 -1.0 0.0
  outer loop
    vertex 94.50000000000001 47.5 9.799999999999999
    vertex 93.00000000000001 47.5 7.5
    vertex 94.50000000000001 47.5 7.5
  endloop
endfacet
facet normal 0.0 -1.0 0.0
  outer loop
    vertex 93.00000000000001 47.5 7.5
    vertex 94.50000000000001 47.5 9.799999999999999
    vertex 93.00000000000001 47.5 9.799999999999999
  endloop
endfacet
facet normal 0.0 1.0 0.0
  outer loop
    vertex 0.8000000000000068 49.2 16.499999999999996
    vertex 83.00000000000001 49.2 14.499999999999998
    vertex 0.8000000000000068 49.2 14.499999999999998
  endloop
endfacet
facet normal 0.0 1.0 0.0
  outer loop
    vertex 83.00000000000001 49.2 14.499999999999998
    vertex 0.8000000000000068 49.2 16.499999999999996
    vertex 83.00000000000001 49.2 14.999999999999998
  endloop
endfacet
facet normal 0.0 1.0 0.0
  outer loop
    vertex 83.00000000000001 49.2 14.999999999999998
    vertex 0.8000000000000068 49.2 16.499999999999996
    vertex 92.00000000000001 49.2 14.999999999999998
  endloop
endfacet
facet normal 0.0 1.0 0.0
  outer loop
    vertex 92.00000000000001 49.2 14.999999999999998
    vertex 93.7 49.2 14.499999999999998
    vertex 92.00000000000001 49.2 14.499999999999998
  endloop
endfacet
facet normal 0.0 1.0 0.0
  outer loop
    vertex 93.7 49.2 14.499999999999998
    vertex 92.00000000000001 49.2 14.999999999999998
    vertex 93.7 49.2 16.499999999999996
  endloop
endfacet
facet normal 0.0 1.0 0.0
  outer loop
    vertex 93.7 49.2 16.499999999999996
    vertex 92.00000000000001 49.2 14.999999999999998
    vertex 0.8000000000000068 49.2 16.499999999999996
  endloop
endfacet
facet normal 0.0 1.0 0.0
  outer loop
    vertex 3.500000000000006 3.499999999999998 1.9999999999999998
    vertex 61.000000000000014 3.499999999999998 9.5
    vertex 61.000000000000014 3.499999999999998 1.9999999999999991
  endloop
endfacet
facet normal 0.0 1.0 0.0
  outer loop
    vertex 61.000000000000014 3.499999999999998 9.5
    vertex 3.500000000000006 3.499999999999998 1.9999999999999998
    vertex 3.500000000000006 3.499999999999998 9.5
  endloop
endfacet
facet normal -1.0 0.0 0.0
  outer loop
    vertex 91.50000000000001 30.5 9.5
    vertex 91.50000000000001 21.5 1.9999999999999998
    vertex 91.50000000000001 21.5 9.5
  endloop
endfacet
facet normal -1.0 0.0 0.0
  outer loop
    vertex 91.50000000000001 21.5 1.9999999999999998
    vertex 91.50000000000001 30.5 9.5
    vertex 91.50000000000001 30.5 1.9999999999999998
  endloop
endfacet
facet normal -1.0 0.0 0.0
  outer loop
    vertex 0.8000000000000068 0.8000000000000002 16.499999999999996
    vertex 0.8000000000000044 15.5 15.499999999999996
    vertex 0.8000000000000068 0.8000000000000002 14.499999999999998
  endloop
endfacet
facet normal -1.0 0.0 0.0
  outer loop
    vertex 0.8000000000000044 15.5 15.499999999999996
    vertex 0.8000000000000068 0.8000000000000002 16.499999999999996
    vertex 0.8000000000000068 49.2 16.499999999999996
  endloop
endfacet
facet normal -1.0 0.0 0.0
  outer loop
    vertex 0.8000000000000044 15.5 15.499999999999996
    vertex 0.8000000000000068 49.2 16.499999999999996
    vertex 0.8000000000000006 23.99999999999999 15.5
  endloop
endfacet
facet normal -1.0 0.0 0.0
  outer loop
    vertex 0.8000000000000006 23.99999999999999 15.5
    vertex 0.8000000000000068 49.2 16.499999999999996
    vertex 0.8000000000000006 23.99999999999999 14.499999999999998
  endloop
endfacet
facet normal -1.0 0.0 0.0
  outer loop
    vertex 0.8000000000000006 23.99999999999999 14.499999999999998
    vertex 0.8000000000000068 49.2 16.499999999999996
    vertex 0.8000000000000068 49.2 14.499999999999998
  endloop
endfacet
facet normal -1.0 0.0 0.0
  outer loop
    vertex 0.8000000000000044 15.5 14.499999999999998
    vertex 0.8000000000000068 0.8000000000000002 14.499999999999998
    vertex 0.8000000000000044 15.5 15.499999999999996
  endloop
endfacet
facet normal 4.104630066394581e-32 -1.0 -1.792169637265338e-32
  outer loop
    vertex 93.00000000000001 48.5 1.9999999999999998
    vertex 92.00000000000001 48.5 11.0
    vertex 68.29999999999995 48.5 1.9999999999999998
  endloop
endfacet
facet normal 4.104630066394581e-32 -1.0 -1.792169637265338e-32
  outer loop
    vertex 92.00000000000001 48.5 11.0
    vertex 93.00000000000001 48.5 1.9999999999999998
    vertex 93.00000000000001 48.5 16.499999999999996
  endloop
endfacet
facet normal 4.104630066394581e-32 -1.0 -1.792169637265338e-32
  outer loop
    vertex 68.29999999999995 48.5 1.9999999999999998
    vertex 92.00000000000001 48.5 11.0
    vertex 68.29999999999995 48.5 9.5
  endloop
endfacet
facet normal 4.104630066394581e-32 -1.0 -1.792169637265338e-32
  outer loop
    vertex 68.29999999999995 48.5 9.5
    vertex 92.00000000000001 48.5 11.0
    vertex 1.5000000000000058 48.5 9.5
  endloop
endfacet
facet normal 4.104630066394581e-32 -1.0 -1.792169637265338e-32
  outer loop
    vertex 92.00000000000001 48.5 11.0
    vertex 93.00000000000001 48.5 16.499999999999996
    vertex 92.00000000000001 48.5 14.999999999999998
  endloop
endfacet
facet normal 4.104630066394581e-32 -1.0 -1.792169637265338e-32
  outer loop
    vertex 92.00000000000001 48.5 14.999999999999998
    vertex 93.00000000000001 48.5 16.499999999999996
    vertex 83.00000000000001 48.5 14.999999999999998
  endloop
endfacet
facet normal 4.104630066394581e-32 -1.0 -1.792169637265338e-32
  outer loop
    vertex 1.5000000000000058 48.5 9.5
    vertex 83.00000000000001 48.5 11.0
    vertex 1.5000000000000067 48.5 16.499999999999996
  endloop
endfacet
facet normal 4.104630066394581e-32 -1.0 -1.792169637265338e-32
  outer loop
    vertex 83.00000000000001 48.5 11.0
    vertex 1.5000000000000058 48.5 9.5
    vertex 92.00000000000001 48.5 11.0
  endloop
endfacet
facet normal 4.104630066394581e-32 -1.0 -1.792169637265338e-32
  outer loop
    vertex 1.5000000000000067 48.5 16.499999999999996
    vertex 83.00000000000001 48.5 11.0
    vertex 83.00000000000001 48.5 14.999999999999998
  endloop
endfacet
facet normal 4.104630066394581e-32 -1.0 -1.792169637265338e-32
  outer loop
    vertex 1.5000000000000067 48.5 16.499999999999996
    vertex 83.00000000000001 48.5 14.999999999999998
    vertex 93.00000000000001 48.5 16.499999999999996
  endloop
endfacet
facet normal 1.0 0.0 0.0
  outer loop
    vertex 61.000000000000014 3.499999999999998 1.9999999999999991
    vertex 61.000000000000014 1.5 9.5
    vertex 61.000000000000014 1.5 1.9999999999999996
  endloop
endfacet
facet normal 1.0 0.0 0.0
  outer loop
    vertex 61.000000000000014 1.5 9.5
    vertex 61.000000000000014 3.499999999999998 1.9999999999999991
    vertex 61.000000000000014 3.499999999999998 9.5
  endloop
endfacet
facet normal 0.0 0.0 1.0
  outer loop
    vertex 0.8000000000000006 23.99999999999999 14.499999999999998
    vertex 6.653557795219772e-15 50.0 14.499999999999998
    vertex 2.6437185773886536e-16 23.999999999999996 14.499999999999998
  endloop
endfacet
facet normal 0.0 0.0 1.0
  outer loop
    vertex 6.653557795219772e-15 50.0 14.499999999999998
    vertex 0.8000000000000006 23.99999999999999 14.499999999999998
    vertex 0.8000000000000068 49.2 14.499999999999998
  endloop
endfacet
facet normal 0.0 0.0 1.0
  outer loop
    vertex 6.653557795219772e-15 50.0 14.499999999999998
    vertex 0.8000000000000068 49.2 14.499999999999998
    vertex 83.00000000000001 50.0 14.499999999999998
  endloop
endfacet
facet normal 0.0 0.0 1.0
  outer loop
    vertex 83.00000000000001 50.0 14.499999999999998
    vertex 0.8000000000000068 49.2 14.499999999999998
    vertex 83.00000000000001 49.2 14.499999999999998
  endloop
endfacet
facet normal 0.0 2.0142617732484995e-16 -1.0
  outer loop
    vertex 1.5 23.99999999999999 15.5
    vertex 0.8000000000000044 15.5 15.499999999999996
    vertex 0.8000000000000006 23.99999999999999 15.5
  endloop
endfacet
facet normal 0.0 2.0142617732484995e-16 -1.0
  outer loop
    vertex 0.8000000000000044 15.5 15.499999999999996
    vertex 1.5 23.99999999999999 15.5
    vertex 1.5000000000000036 15.5 15.499999999999996
  endloop
endfacet
facet normal -1.0 1.2135241494706763e-18 -1.2236164857904471e-17
  outer loop
    vertex 3.837180070921722e-15 15.499999999999996 14.499999999999998
    vertex 6.653557795219772e-15 0.0 0.0
    vertex 6.653557795219772e-15 0.0 14.499999999999998
  endloop
endfacet
facet normal -1.0 1.2135241494706763e-18 -1.2236164857904471e-17
  outer loop
    vertex 6.653557795219772e-15 0.0 0.0
    vertex 3.837180070921722e-15 15.499999999999996 14.499999999999998
    vertex 3.572808213182857e-15 15.5 10.999999999999998
  endloop
endfacet
facet normal -1.0 1.2135241494706763e-18 -1.2236164857904471e-17
  outer loop
    vertex 6.653557795219772e-15 0.0 0.0
    vertex 3.572808213182857e-15 15.5 10.999999999999998
    vertex 6.653557795219772e-15 50.0 0.0
  endloop
endfacet
facet normal -1.0 1.2135241494706763e-18 -1.2236164857904471e-17
  outer loop
    vertex 6.653557795219772e-15 50.0 0.0
    vertex 3.572808213182857e-15 15.5 10.999999999999998
    vertex 0.0 23.99999999999999 11.0
  endloop
endfacet
facet normal -1.0 1.2135241494706763e-18 -1.2236164857904471e-17
  outer loop
    vertex 6.653557795219772e-15 50.0 0.0
    vertex 0.0 23.99999999999999 11.0
    vertex 2.6437185773886536e-16 23.999999999999996 14.499999999999998
  endloop
endfacet
facet normal -1.0 1.2135241494706763e-18 -1.2236164857904471e-17
  outer loop
    vertex 6.653557795219772e-15 50.0 0.0
    vertex 2.6437185773886536e-16 23.999999999999996 14.499999999999998
    vertex 6.653557795219772e-15 50.0 14.499999999999998
  endloop
endfacet
facet normal 1.0 0.0 0.0
  outer loop
    vertex 83.00000000000001 50.0 11.0
    vertex 83.00000000000001 48.5 14.999999999999998
    vertex 83.00000000000001 48.5 11.0
  endloop
endfacet
facet normal 1.0 0.0 0.0
  outer loop
    vertex 83.00000000000001 48.5 14.999999999999998
    vertex 83.00000000000001 50.0 11.0
    vertex 83.00000000000001 49.2 14.499999999999998
  endloop
endfacet
facet normal 1.0 0.0 0.0
  outer loop
    vertex 83.00000000000001 49.2 14.499999999999998
    vertex 83.00000000000001 50.0 11.0
    vertex 83.00000000000001 50.0 14.499999999999998
  endloop
endfacet
facet normal 1.0 0.0 0.0
  outer loop
    vertex 83.00000000000001 49.2 14.999999999999998
    vertex 83.00000000000001 48.5 14.999999999999998
    vertex 83.00000000000001 49.2 14.499999999999998
  endloop
endfacet
facet normal 0.0 0.0 -1.0
  outer loop
    vertex 93.00000000000001 30.499999999999996 11.699999999999998
    vertex 92.50000000000001 1.5 11.699999999999998
    vertex 92.50000000000001 30.499999999999996 11.699999999999998
  endloop
endfacet
facet normal 0.0 0.0 -1.0
  outer loop
    vertex 92.50000000000001 1.5 11.699999999999998
    vertex 93.00000000000001 30.499999999999996 11.699999999999998
    vertex 93.00000000000001 1.5 11.699999999999998
  endloop
endfacet
facet normal 0.0 -1.0 0.0
  outer loop
    vertex 93.00000000000001 21.5 9.5
    vertex 91.50000000000001 21.5 1.9999999999999998
    vertex 93.00000000000001 21.5 1.9999999999999998
  endloop
endfacet
facet normal 0.0 -1.0 0.0
  outer loop
    vertex 91.50000000000001 21.5 1.9999999999999998
    vertex 93.00000000000001 21.5 9.5
    vertex 91.50000000000001 21.5 9.5
  endloop
endfacet
facet normal 2.810243352208344e-36 -4.279279202691059e-37 -1.0
  outer loop
    vertex 94.50000000000001 50.0 0.0
    vertex 6.653557795219772e-15 0.0 0.0
    vertex 6.653557795219772e-15 50.0 0.0
  endloop
endfacet
facet normal 2.810243352208344e-36 -4.279279202691059e-37 -1.0
  outer loop
    vertex 6.653557795219772e-15 0.0 0.0
    vertex 94.50000000000001 50.0 0.0
    vertex 94.50000000000001 3.524958103184872e-16 0.0
  endloop
endfacet
facet normal 0.0 0.0 1.0
  outer loop
    vertex 94.50000000000001 32.5 7.5
    vertex 93.00000000000001 47.5 7.5
    vertex 93.00000000000001 32.5 7.5
  endloop
endfacet
facet normal 0.0 0.0 1.0
  outer loop
    vertex 93.00000000000001 47.5 7.5
    vertex 94.50000000000001 32.5 7.5
    vertex 94.50000000000001 47.5 7.5
  endloop
endfacet
facet normal 0.0 0.0 1.0
  outer loop
    vertex 93.00000000000001 21.5 9.5
    vertex 91.50000000000001 30.5 9.5
    vertex 91.50000000000001 21.5 9.5
  endloop
endfacet
facet normal 0.0 0.0 1.0
  outer loop
    vertex 91.50000000000001 30.5 9.5
    vertex 93.00000000000001 21.5 9.5
    vertex 93.00000000000001 30.5 9.5
  endloop
endfacet
facet normal 3.781724583056649e-18 -1.0 4.0097428916361244e-47
  outer loop
    vertex 93.7 0.8000000000000005 16.499999999999996
    vertex 0.8000000000000068 0.8000000000000002 14.499999999999998
    vertex 93.7 0.8000000000000005 14.499999999999998
  endloop
endfacet
facet normal 3.781724583056649e-18 -1.0 4.0097428916361244e-47
  outer loop
    vertex 0.8000000000000068 0.8000000000000002 14.499999999999998
    vertex 93.7 0.8000000000000005 16.499999999999996
    vertex 0.8000000000000068 0.8000000000000002 16.499999999999996
  endloop
endfacet
facet normal 0.0 0.0 1.0
  outer loop
    vertex 3.572808213182857e-15 15.5 10.999999999999998
    vertex 1.5 23.99999999999999 11.0
    vertex 0.0 23.99999999999999 11.0
  endloop
endfacet
facet normal 0.0 0.0 1.0
  outer loop
    vertex 1.5 23.99999999999999 11.0
    vertex 3.572808213182857e-15 15.5 10.999999999999998
    vertex 1.5000000000000036 15.5 10.999999999999998
  endloop
endfacet
facet normal -1.0 0.0 0.0
  outer loop
    vertex 92.50000000000001 30.499999999999996 12.499999999999998
    vertex 92.50000000000001 1.5 11.699999999999998
    vertex 92.50000000000001 1.5 12.499999999999998
  endloop
endfacet
facet normal -1.0 0.0 0.0
  outer loop
    vertex 92.50000000000001 1.5 11.699999999999998
    vertex 92.50000000000001 30.499999999999996 12.499999999999998
    vertex 92.50000000000001 30.499999999999996 11.699999999999998
  endloop
endfacet
facet normal 0.0 0.0 1.0
  outer loop
    vertex 93.00000000000001 1.5 12.499999999999998
    vertex 92.50000000000001 30.499999999999996 12.499999999999998
    vertex 92.50000000000001 1.5 12.499999999999998
  endloop
endfacet
facet normal 0.0 0.0 1.0
  outer loop
    vertex 92.50000000000001 30.499999999999996 12.499999999999998
    vertex 93.00000000000001 1.5 12.499999999999998
    vertex 93.00000000000001 30.499999999999996 12.499999999999998
  endloop
endfacet
facet normal 0.0 -1.0 0.0
  outer loop
    vertex 68.29999999999995 46.5 9.5
    vertex 3.500000000000006 46.5 1.9999999999999998
    vertex 68.29999999999995 46.5 1.9999999999999998
  endloop
endfacet
facet normal 0.0 -1.0 0.0
  outer loop
    vertex 3.500000000000006 46.5 1.9999999999999998
    vertex 68.29999999999995 46.5 9.5
    vertex 3.500000000000006 46.5 9.5
  endloop
endfacet
facet normal 1.0 0.0 0.0
  outer loop
    vertex 68.29999999999995 48.5 1.9999999999999998
    vertex 68.29999999999995 46.5 9.5
    vertex 68.29999999999995 46.5 1.9999999999999998
  endloop
endfacet
facet normal 1.0 0.0 0.0
  outer loop
    vertex 68.29999999999995 46.5 9.5
    vertex 68.29999999999995 48.5 1.9999999999999998
    vertex 68.29999999999995 48.5 9.5
  endloop
endfacet
facet normal 1.0 0.0 0.0
  outer loop
    vertex 2.0000000000000058 36.49999999999999 11.699999999999998
    vertex 2.0000000000000058 30.499999999999996 12.499999999999998
    vertex 2.0000000000000058 30.499999999999996 11.699999999999998
  endloop
endfacet
facet normal 1.0 0.0 0.0
  outer loop
    vertex 2.0000000000000058 30.499999999999996 12.499999999999998
    vertex 2.0000000000000058 36.49999999999999 11.699999999999998
    vertex 2.0000000000000058 36.49999999999999 12.499999999999998
  endloop
endfacet
facet normal 0.0 0.0 1.0
  outer loop
    vertex 2.0000000000000058 30.499999999999996 12.499999999999998
    vertex 1.500000000000006 36.49999999999999 12.499999999999998
    vertex 1.500000000000006 30.499999999999996 12.499999999999998
  endloop
endfacet
facet normal 0.0 0.0 1.0
  outer loop
    vertex 1.500000000000006 36.49999999999999 12.499999999999998
    vertex 2.0000000000000058 30.499999999999996 12.499999999999998
    vertex 2.0000000000000058 36.49999999999999 12.499999999999998
  endloop
endfacet
facet normal 0.0 0.0 -1.0
  outer loop
    vertex 2.0000000000000058 36.49999999999999 11.699999999999998
    vertex 1.500000000000006 30.499999999999996 11.699999999999998
    vertex 1.5000000000000058 36.49999999999999 11.699999999999998
  endloop
endfacet
facet normal 0.0 0.0 -1.0
  outer loop
    vertex 1.500000000000006 30.499999999999996 11.699999999999998
    vertex 2.0000000000000058 36.49999999999999 11.699999999999998
    vertex 2.0000000000000058 30.499999999999996 11.699999999999998
  endloop
endfacet
facet normal -1.0 0.0 0.0
  outer loop
    vertex 93.00000000000001 1.5 11.699999999999998
    vertex 93.00000000000001 21.5 9.5
    vertex 93.00000000000001 1.5 1.9999999999999998
  endloop
endfacet
facet normal -1.0 0.0 0.0
  outer loop
    vertex 93.00000000000001 21.5 9.5
    vertex 93.00000000000001 1.5 11.699999999999998
    vertex 93.00000000000001 30.499999999999996 11.699999999999998
  endloop
endfacet
facet normal -1.0 0.0 0.0
  outer loop
    vertex 93.00000000000001 21.5 9.5
    vertex 93.00000000000001 30.499999999999996 11.699999999999998
    vertex 93.00000000000001 30.5 9.5
  endloop
endfacet
facet normal -1.0 0.0 0.0
  outer loop
    vertex 93.00000000000001 48.5 16.499999999999996
    vertex 93.00000000000001 1.5 12.499999999999998
    vertex 93.00000000000001 1.5 16.499999999999996
  endloop
endfacet
facet normal -1.0 0.0 0.0
  outer loop
    vertex 93.00000000000001 1.5 12.499999999999998
    vertex 93.00000000000001 48.5 16.499999999999996
    vertex 93.00000000000001 30.499999999999996 12.499999999999998
  endloop
endfacet
facet normal -1.0 0.0 0.0
  outer loop
    vertex 93.00000000000001 30.499999999999996 12.499999999999998
    vertex 93.00000000000001 48.5 16.499999999999996
    vertex 93.00000000000001 30.499999999999996 11.699999999999998
  endloop
endfacet
facet normal -1.0 0.0 0.0
  outer loop
    vertex 93.00000000000001 30.499999999999996 11.699999999999998
    vertex 93.00000000000001 48.5 16.499999999999996
    vertex 93.00000000000001 30.5 9.5
  endloop
endfacet
facet normal -1.0 0.0 0.0
  outer loop
    vertex 93.00000000000001 30.5 9.5
    vertex 93.00000000000001 48.5 16.499999999999996
    vertex 93.00000000000001 32.5 9.799999999999999
  endloop
endfacet
facet normal -1.0 0.0 0.0
  outer loop
    vertex 93.00000000000001 32.5 9.799999999999999
    vertex 93.00000000000001 48.5 16.499999999999996
    vertex 93.00000000000001 47.5 9.799999999999999
  endloop
endfacet
facet normal -1.0 0.0 0.0
  outer loop
    vertex 93.00000000000001 47.5 9.799999999999999
    vertex 93.00000000000001 48.5 16.499999999999996
    vertex 93.00000000000001 47.5 7.5
  endloop
endfacet
facet normal -1.0 0.0 0.0
  outer loop
    vertex 93.00000000000001 30.499999999999996 1.9999999999999998
    vertex 93.00000000000001 32.5 7.5
    vertex 93.00000000000001 48.5 1.9999999999999998
  endloop
endfacet
facet normal -1.0 0.0 0.0
  outer loop
    vertex 93.00000000000001 32.5 7.5
    vertex 93.00000000000001 30.499999999999996 1.9999999999999998
    vertex 93.00000000000001 30.5 9.5
  endloop
endfacet
facet normal -1.0 0.0 0.0
  outer loop
    vertex 93.00000000000001 32.5 7.5
    vertex 93.00000000000001 30.5 9.5
    vertex 93.00000000000001 32.5 9.799999999999999
  endloop
endfacet
facet normal -1.0 0.0 0.0
  outer loop
    vertex 93.00000000000001 48.5 1.9999999999999998
    vertex 93.00000000000001 32.5 7.5
    vertex 93.00000000000001 47.5 7.5
  endloop
endfacet
facet normal -1.0 0.0 0.0
  outer loop
    vertex 93.00000000000001 48.5 1.9999999999999998
    vertex 93.00000000000001 47.5 7.5
    vertex 93.00000000000001 48.5 16.499999999999996
  endloop
endfacet
facet normal -1.0 0.0 0.0
  outer loop
    vertex 93.00000000000001 21.5 1.9999999999999998
    vertex 93.00000000000001 1.5 1.9999999999999998
    vertex 93.00000000000001 21.5 9.5
  endloop
endfacet
facet normal 0.0 0.0 -1.0
  outer loop
    vertex 94.50000000000001 47.5 9.799999999999999
    vertex 93.00000000000001 32.5 9.799999999999999
    vertex 93.00000000000001 47.5 9.799999999999999
  endloop
endfacet
facet normal 0.0 0.0 -1.0
  outer loop
    vertex 93.00000000000001 32.5 9.799999999999999
    vertex 94.50000000000001 47.5 9.799999999999999
    vertex 94.50000000000001 32.5 9.799999999999999
  endloop
endfacet
facet normal 0.0 1.0 0.0
  outer loop
    vertex 93.00000000000001 32.5 9.799999999999999
    vertex 94.50000000000001 32.5 7.5
    vertex 93.00000000000001 32.5 7.5
  endloop
endfacet
facet normal 0.0 1.0 0.0
  outer loop
    vertex 94.50000000000001 32.5 7.5
    vertex 93.00000000000001 32.5 9.799999999999999
    vertex 94.50000000000001 32.5 9.799999999999999
  endloop
endfacet
facet normal 0.0 0.0 1.0
  outer loop
    vertex 2.0000000000000058 7.6999999999999975 12.499999999999998
    vertex 1.500000000000006 13.699999999999998 12.499999999999998
    vertex 1.500000000000006 7.6999999999999975 12.499999999999998
  endloop
endfacet
facet normal 0.0 0.0 1.0
  outer loop
    vertex 1.500000000000006 13.699999999999998 12.499999999999998
    vertex 2.0000000000000058 7.6999999999999975 12.499999999999998
    vertex 2.0000000000000058 13.699999999999998 12.499999999999998
  endloop
endfacet
facet normal -0.0 -1.0 -0.0
  outer loop
    vertex 2.0000000000000058 7.6999999999999975 12.499999999999998
    vertex 1.500000000000006 7.6999999999999975 11.699999999999998
    vertex 2.0000000000000058 7.6999999999999975 11.699999999999998
  endloop
endfacet
facet normal -0.0 -1.0 -0.0
  outer loop
    vertex 1.500000000000006 7.6999999999999975 11.699999999999998
    vertex 2.0000000000000058 7.6999999999999975 12.499999999999998
    vertex 1.500000000000006 7.6999999999999975 12.499999999999998
  endloop
endfacet
facet normal 1.0 0.0 0.0
  outer loop
    vertex 2.0000000000000058 13.699999999999998 11.699999999999998
    vertex 2.0000000000000058 7.6999999999999975 12.499999999999998
    vertex 2.0000000000000058 7.6999999999999975 11.699999999999998
  endloop
endfacet
facet normal 1.0 0.0 0.0
  outer loop
    vertex 2.0000000000000058 7.6999999999999975 12.499999999999998
    vertex 2.0000000000000058 13.699999999999998 11.699999999999998
    vertex 2.0000000000000058 13.699999999999998 12.499999999999998
  endloop
endfacet
facet normal 0.0 1.0 0.0
  outer loop
    vertex 1.500000000000006 13.699999999999998 12.499999999999998
    vertex 2.0000000000000058 13.699999999999998 11.699999999999998
    vertex 1.500000000000006 13.699999999999998 11.699999999999998
  endloop
endfacet
facet normal 0.0 1.0 0.0
  outer loop
    vertex 2.0000000000000058 13.699999999999998 11.699999999999998
    vertex 1.500000000000006 13.699999999999998 12.499999999999998
    vertex 2.0000000000000058 13.699999999999998 12.499999999999998
  endloop
endfacet
facet normal 1.0 3.8849942846903854e-18 -1.174986034394958e-16
  outer loop
    vertex 1.500000000000006 1.4999999999999982 9.5
    vertex 1.500000000000006 7.6999999999999975 11.699999999999998
    vertex 1.5000000000000067 1.5 16.499999999999996
  endloop
endfacet
facet normal 1.0 3.8849942846903854e-18 -1.174986034394958e-16
  outer loop
    vertex 1.500000000000006 7.6999999999999975 11.699999999999998
    vertex 1.500000000000006 1.4999999999999982 9.5
    vertex 1.5000000000000036 15.5 10.999999999999998
  endloop
endfacet
facet normal 1.0 3.8849942846903854e-18 -1.174986034394958e-16
  outer loop
    vertex 1.5000000000000036 15.5 10.999999999999998
    vertex 1.500000000000006 1.4999999999999982 9.5
    vertex 1.5000000000000058 48.5 9.5
  endloop
endfacet
facet normal 1.0 3.8849942846903854e-18 -1.174986034394958e-16
  outer loop
    vertex 1.500000000000006 7.6999999999999975 11.699999999999998
    vertex 1.5000000000000036 15.5 10.999999999999998
    vertex 1.500000000000006 13.699999999999998 11.699999999999998
  endloop
endfacet
facet normal 1.0 3.8849942846903854e-18 -1.174986034394958e-16
  outer loop
    vertex 1.500000000000006 13.699999999999998 11.699999999999998
    vertex 1.5000000000000036 15.5 10.999999999999998
    vertex 1.500000000000006 13.699999999999998 12.499999999999998
  endloop
endfacet
facet normal 1.0 3.8849942846903854e-18 -1.174986034394958e-16
  outer loop
    vertex 1.5000000000000036 15.5 10.999999999999998
    vertex 1.5000000000000058 48.5 9.5
    vertex 1.5 23.99999999999999 11.0
  endloop
endfacet
facet normal 1.0 3.8849942846903854e-18 -1.174986034394958e-16
  outer loop
    vertex 1.5 23.99999999999999 11.0
    vertex 1.5000000000000058 48.5 9.5
    vertex 1.500000000000006 30.499999999999996 11.699999999999998
  endloop
endfacet
facet normal 1.0 3.8849942846903854e-18 -1.174986034394958e-16
  outer loop
    vertex 1.5 23.99999999999999 11.0
    vertex 1.500000000000006 30.499999999999996 11.699999999999998
    vertex 1.5 23.99999999999999 15.5
  endloop
endfacet
facet normal 1.0 3.8849942846903854e-18 -1.174986034394958e-16
  outer loop
    vertex 1.500000000000006 30.499999999999996 11.699999999999998
    vertex 1.5000000000000058 48.5 9.5
    vertex 1.5000000000000058 36.49999999999999 11.699999999999998
  endloop
endfacet
facet normal 1.0 3.8849942846903854e-18 -1.174986034394958e-16
  outer loop
    vertex 1.5000000000000058 36.49999999999999 11.699999999999998
    vertex 1.5000000000000058 48.5 9.5
    vertex 1.500000000000006 36.49999999999999 12.499999999999998
  endloop
endfacet
facet normal 1.0 3.8849942846903854e-18 -1.174986034394958e-16
  outer loop
    vertex 1.5000000000000067 1.5 16.499999999999996
    vertex 1.5000000000000036 15.5 15.499999999999996
    vertex 1.5000000000000067 48.5 16.499999999999996
  endloop
endfacet
facet normal 1.0 3.8849942846903854e-18 -1.174986034394958e-16
  outer loop
    vertex 1.5000000000000036 15.5 15.499999999999996
    vertex 1.5000000000000067 1.5 16.499999999999996
    vertex 1.500000000000006 7.6999999999999975 12.499999999999998
  endloop
endfacet
facet normal 1.0 3.8849942846903854e-18 -1.174986034394958e-16
  outer loop
    vertex 1.500000000000006 7.6999999999999975 12.499999999999998
    vertex 1.5000000000000067 1.5 16.499999999999996
    vertex 1.500000000000006 7.6999999999999975 11.699999999999998
  endloop
endfacet
facet normal 1.0 3.8849942846903854e-18 -1.174986034394958e-16
  outer loop
    vertex 1.5000000000000036 15.5 15.499999999999996
    vertex 1.500000000000006 7.6999999999999975 12.499999999999998
    vertex 1.500000000000006 13.699999999999998 12.499999999999998
  endloop
endfacet
facet normal 1.0 3.8849942846903854e-18 -1.174986034394958e-16
  outer loop
    vertex 1.5000000000000036 15.5 15.499999999999996
    vertex 1.500000000000006 13.699999999999998 12.499999999999998
    vertex 1.5000000000000036 15.5 10.999999999999998
  endloop
endfacet
facet normal 1.0 3.8849942846903854e-18 -1.174986034394958e-16
  outer loop
    vertex 1.5000000000000067 48.5 16.499999999999996
    vertex 1.5000000000000036 15.5 15.499999999999996
    vertex 1.5 23.99999999999999 15.5
  endloop
endfacet
facet normal 1.0 3.8849942846903854e-18 -1.174986034394958e-16
  outer loop
    vertex 1.5000000000000067 48.5 16.499999999999996
    vertex 1.5 23.99999999999999 15.5
    vertex 1.500000000000006 30.499999999999996 12.499999999999998
  endloop
endfacet
facet normal 1.0 3.8849942846903854e-18 -1.174986034394958e-16
  outer loop
    vertex 1.500000000000006 30.499999999999996 12.499999999999998
    vertex 1.5 23.99999999999999 15.5
    vertex 1.500000000000006 30.499999999999996 11.699999999999998
  endloop
endfacet
facet normal 1.0 3.8849942846903854e-18 -1.174986034394958e-16
  outer loop
    vertex 1.5000000000000067 48.5 16.499999999999996
    vertex 1.500000000000006 30.499999999999996 12.499999999999998
    vertex 1.500000000000006 36.49999999999999 12.499999999999998
  endloop
endfacet
facet normal 1.0 3.8849942846903854e-18 -1.174986034394958e-16
  outer loop
    vertex 1.5000000000000067 48.5 16.499999999999996
    vertex 1.500000000000006 36.49999999999999 12.499999999999998
    vertex 1.5000000000000058 48.5 9.5
  endloop
endfacet
facet normal -1.010958375957817e-17 1.0 -2.3397481184487542e-17
  outer loop
    vertex 1.5000000000000067 1.5 16.499999999999996
    vertex 61.000000000000014 1.5 9.5
    vertex 1.500000000000006 1.4999999999999982 9.5
  endloop
endfacet
facet normal -1.010958375957817e-17 1.0 -2.3397481184487542e-17
  outer loop
    vertex 61.000000000000014 1.5 9.5
    vertex 1.5000000000000067 1.5 16.499999999999996
    vertex 92.50000000000001 1.5 11.699999999999998
  endloop
endfacet
facet normal -1.010958375957817e-17 1.0 -2.3397481184487542e-17
  outer loop
    vertex 92.50000000000001 1.5 11.699999999999998
    vertex 1.5000000000000067 1.5 16.499999999999996
    vertex 92.50000000000001 1.5 12.499999999999998
  endloop
endfacet
facet normal -1.010958375957817e-17 1.0 -2.3397481184487542e-17
  outer loop
    vertex 92.50000000000001 1.5 12.499999999999998
    vertex 1.5000000000000067 1.5 16.499999999999996
    vertex 93.00000000000001 1.5 12.499999999999998
  endloop
endfacet
facet normal -1.010958375957817e-17 1.0 -2.3397481184487542e-17
  outer loop
    vertex 93.00000000000001 1.5 12.499999999999998
    vertex 1.5000000000000067 1.5 16.499999999999996
    vertex 93.00000000000001 1.5 16.499999999999996
  endloop
endfacet
facet normal -1.010958375957817e-17 1.0 -2.3397481184487542e-17
  outer loop
    vertex 61.000000000000014 1.5 9.5
    vertex 93.00000000000001 1.5 1.9999999999999998
    vertex 61.000000000000014 1.5 1.9999999999999996
  endloop
endfacet
facet normal -1.010958375957817e-17 1.0 -2.3397481184487542e-17
  outer loop
    vertex 93.00000000000001 1.5 1.9999999999999998
    vertex 61.000000000000014 1.5 9.5
    vertex 93.00000000000001 1.5 11.699999999999998
  endloop
endfacet
facet normal -1.010958375957817e-17 1.0 -2.3397481184487542e-17
  outer loop
    vertex 93.00000000000001 1.5 11.699999999999998
    vertex 61.000000000000014 1.5 9.5
    vertex 92.50000000000001 1.5 11.699999999999998
  endloop
endfacet
facet normal 0.0 1.0 0.0
  outer loop
    vertex 1.500000000000006 36.49999999999999 12.499999999999998
    vertex 2.0000000000000058 36.49999999999999 11.699999999999998
    vertex 1.5000000000000058 36.49999999999999 11.699999999999998
  endloop
endfacet
facet normal 0.0 1.0 0.0
  outer loop
    vertex 2.0000000000000058 36.49999999999999 11.699999999999998
    vertex 1.500000000000006 36.49999999999999 12.499999999999998
    vertex 2.0000000000000058 36.49999999999999 12.499999999999998
  endloop
endfacet
facet normal 1.8799776550319353e-15 1.0 -3.7599553100638635e-16
  outer loop
    vertex 91.50000000000001 30.5 9.5
    vertex 93.00000000000001 30.499999999999996 1.9999999999999998
    vertex 91.50000000000001 30.5 1.9999999999999998
  endloop
endfacet
facet normal 1.8799776550319353e-15 1.0 -3.7599553100638635e-16
  outer loop
    vertex 93.00000000000001 30.499999999999996 1.9999999999999998
    vertex 91.50000000000001 30.5 9.5
    vertex 93.00000000000001 30.5 9.5
  endloop
endfacet
facet normal 0.0 0.0 -1.0
  outer loop
    vertex 2.0000000000000058 13.699999999999998 11.699999999999998
    vertex 1.500000000000006 7.6999999999999975 11.699999999999998
    vertex 1.500000000000006 13.699999999999998 11.699999999999998
  endloop
endfacet
facet normal 0.0 0.0 -1.0
  outer loop
    vertex 1.500000000000006 7.6999999999999975 11.699999999999998
    vertex 2.0000000000000058 13.699999999999998 11.699999999999998
    vertex 2.0000000000000058 7.6999999999999975 11.699999999999998
  endloop
endfacet
facet normal 0.0 -1.0 0.0
  outer loop
    vertex 2.0000000000000058 30.499999999999996 12.499999999999998
    vertex 1.500000000000006 30.499999999999996 11.699999999999998
    vertex 2.0000000000000058 30.499999999999996 11.699999999999998
  endloop
endfacet
facet normal 0.0 -1.0 0.0
  outer loop
    vertex 1.500000000000006 30.499999999999996 11.699999999999998
    vertex 2.0000000000000058 30.499999999999996 12.499999999999998
    vertex 1.500000000000006 30.499999999999996 12.499999999999998
  endloop
endfacet
facet normal 0.0 0.0 -1.0
  outer loop
    vertex 92.00000000000001 49.2 14.999999999999998
    vertex 83.00000000000001 48.5 14.999999999999998
    vertex 83.00000000000001 49.2 14.999999999999998
  endloop
endfacet
facet normal 0.0 0.0 -1.0
  outer loop
    vertex 83.00000000000001 48.5 14.999999999999998
    vertex 92.00000000000001 49.2 14.999999999999998
    vertex 92.00000000000001 48.5 14.999999999999998
  endloop
endfacet
facet normal 0.0 0.0 1.0
  outer loop
    vertex 6.653557795219772e-15 0.0 14.499999999999998
    vertex 0.8000000000000044 15.5 14.499999999999998
    vertex 3.837180070921722e-15 15.499999999999996 14.499999999999998
  endloop
endfacet
facet normal 0.0 0.0 1.0
  outer loop
    vertex 0.8000000000000044 15.5 14.499999999999998
    vertex 6.653557795219772e-15 0.0 14.499999999999998
    vertex 0.8000000000000068 0.8000000000000002 14.499999999999998
  endloop
endfacet
facet normal 0.0 0.0 1.0
  outer loop
    vertex 0.8000000000000068 0.8000000000000002 14.499999999999998
    vertex 6.653557795219772e-15 0.0 14.499999999999998
    vertex 94.50000000000001 3.524958103184872e-16 14.499999999999998
  endloop
endfacet
facet normal 0.0 0.0 1.0
  outer loop
    vertex 0.8000000000000068 0.8000000000000002 14.499999999999998
    vertex 94.50000000000001 3.524958103184872e-16 14.499999999999998
    vertex 93.7 0.8000000000000005 14.499999999999998
  endloop
endfacet
facet normal 0.0 0.0 1.0
  outer loop
    vertex 93.7 0.8000000000000005 14.499999999999998
    vertex 94.50000000000001 3.524958103184872e-16 14.499999999999998
    vertex 93.7 49.2 14.499999999999998
  endloop
endfacet
facet normal 0.0 0.0 1.0
  outer loop
    vertex 93.7 49.2 14.499999999999998
    vertex 92.00000000000001 50.0 14.499999999999998
    vertex 92.00000000000001 49.2 14.499999999999998
  endloop
endfacet
facet normal 0.0 0.0 1.0
  outer loop
    vertex 92.00000000000001 50.0 14.499999999999998
    vertex 93.7 49.2 14.499999999999998
    vertex 94.50000000000001 50.0 14.499999999999998
  endloop
endfacet
facet normal 0.0 0.0 1.0
  outer loop
    vertex 94.50000000000001 50.0 14.499999999999998
    vertex 93.7 49.2 14.499999999999998
    vertex 94.50000000000001 3.524958103184872e-16 14.499999999999998
  endloop
endfacet
facet normal 0.0 0.0 1.0
  outer loop
    vertex 61.000000000000014 1.5 9.5
    vertex 3.500000000000006 3.499999999999998 9.5
    vertex 1.500000000000006 1.4999999999999982 9.5
  endloop
endfacet
facet normal 0.0 0.0 1.0
  outer loop
    vertex 3.500000000000006 3.499999999999998 9.5
    vertex 61.000000000000014 1.5 9.5
    vertex 61.000000000000014 3.499999999999998 9.5
  endloop
endfacet
facet normal 0.0 0.0 1.0
  outer loop
    vertex 1.5000000000000058 48.5 9.5
    vertex 3.500000000000006 46.5 9.5
    vertex 68.29999999999995 48.5 9.5
  endloop
endfacet
facet normal 0.0 0.0 1.0
  outer loop
    vertex 3.500000000000006 46.5 9.5
    vertex 1.5000000000000058 48.5 9.5
    vertex 1.500000000000006 1.4999999999999982 9.5
  endloop
endfacet
facet normal 0.0 0.0 1.0
  outer loop
    vertex 3.500000000000006 46.5 9.5
    vertex 1.500000000000006 1.4999999999999982 9.5
    vertex 3.500000000000006 3.499999999999998 9.5
  endloop
endfacet
facet normal 0.0 0.0 1.0
  outer loop
    vertex 68.29999999999995 48.5 9.5
    vertex 3.500000000000006 46.5 9.5
    vertex 68.29999999999995 46.5 9.5
  endloop
endfacet
facet normal 0.0 0.0 1.0
  outer loop
    vertex 0.8000000000000068 0.8000000000000002 16.499999999999996
    vertex 1.5000000000000067 1.5 16.499999999999996
    vertex 0.8000000000000068 49.2 16.499999999999996
  endloop
endfacet
facet normal 0.0 0.0 1.0
  outer loop
    vertex 1.5000000000000067 1.5 16.499999999999996
    vertex 0.8000000000000068 0.8000000000000002 16.499999999999996
    vertex 93.7 0.8000000000000005 16.499999999999996
  endloop
endfacet
facet normal 0.0 0.0 1.0
  outer loop
    vertex 1.5000000000000067 1.5 16.499999999999996
    vertex 93.7 0.8000000000000005 16.499999999999996
    vertex 93.00000000000001 1.5 16.499999999999996
  endloop
endfacet
facet normal 0.0 0.0 1.0
  outer loop
    vertex 93.00000000000001 1.5 16.499999999999996
    vertex 93.7 0.8000000000000005 16.499999999999996
    vertex 93.00000000000001 48.5 16.499999999999996
  endloop
endfacet
facet normal 0.0 0.0 1.0
  outer loop
    vertex 0.8000000000000068 49.2 16.499999999999996
    vertex 1.5000000000000067 48.5 16.499999999999996
    vertex 93.7 49.2 16.499999999999996
  endloop
endfacet
facet normal 0.0 0.0 1.0
  outer loop
    vertex 1.5000000000000067 48.5 16.499999999999996
    vertex 0.8000000000000068 49.2 16.499999999999996
    vertex 1.5000000000000067 1.5 16.499999999999996
  endloop
endfacet
facet normal 0.0 0.0 1.0
  outer loop
    vertex 93.7 49.2 16.499999999999996
    vertex 1.5000000000000067 48.5 16.499999999999996
    vertex 93.00000000000001 48.5 16.499999999999996
  endloop
endfacet
facet normal 0.0 0.0 1.0
  outer loop
    vertex 93.7 49.2 16.499999999999996
    vertex 93.00000000000001 48.5 16.499999999999996
    vertex 93.7 0.8000000000000005 16.499999999999996
  endloop
endfacet
endsolid case_emg
