solid case_emg
facet normal 3.671831357484242e-18 -1.0 0.0
  outer loop
    vertex 96.0 56.59460097221608 0.0
    vertex 94.0 56.59460097221608 6.500000000000001
    vertex 0.0 56.59460097221608 0.0
  endloop
endfacet
facet normal 3.671831357484242e-18 -1.0 0.0
  outer loop
    vertex 94.0 56.59460097221608 6.500000000000001
    vertex 96.0 56.59460097221608 0.0
    vertex 96.0 56.59460097221608 7.000000000000001
  endloop
endfacet
facet normal 3.671831357484242e-18 -1.0 0.0
  outer loop
    vertex 94.0 56.59460097221608 6.500000000000001
    vertex 96.0 56.59460097221608 7.000000000000001
    vertex 94.0 56.59460097221608 7.000000000000001
  endloop
endfacet
facet normal 3.671831357484242e-18 -1.0 0.0
  outer loop
    vertex 0.0 56.59460097221608 0.0
    vertex 85.0 56.59460097221608 6.500000000000001
    vertex 0.0 56.59460097221608 7.000000000000001
  endloop
endfacet
facet normal 3.671831357484242e-18 -1.0 0.0
  outer loop
    vertex 85.0 56.59460097221608 6.500000000000001
    vertex 0.0 56.59460097221608 0.0
    vertex 94.0 56.59460097221608 6.500000000000001
  endloop
endfacet
facet normal 3.671831357484242e-18 -1.0 0.0
  outer loop
    vertex 0.0 56.59460097221608 7.000000000000001
    vertex 85.0 56.59460097221608 6.500000000000001
    vertex 85.0 56.59460097221608 7.000000000000001
  endloop
endfacet
facet normal -1.0 0.0 0.0
  outer loop
    vertex 0.0 107.59460097221607 7.000000000000001
    vertex 0.0 94.59460097221607 6.000000000000002
    vertex 0.0 94.59460097221607 7.000000000000001
  endloop
endfacet
facet normal -1.0 0.0 0.0
  outer loop
    vertex 0.0 80.59460097221607 7.000000000000001
    vertex 0.0 56.59460097221608 0.0
    vertex 0.0 56.59460097221608 7.000000000000001
  endloop
endfacet
facet normal -1.0 0.0 0.0
  outer loop
    vertex 0.0 56.59460097221608 0.0
    vertex 0.0 80.59460097221607 7.000000000000001
    vertex 0.0 80.59460097221607 6.000000000000002
  endloop
endfacet
facet normal -1.0 0.0 0.0
  outer loop
    vertex 0.0 56.59460097221608 0.0
    vertex 0.0 80.59460097221607 6.000000000000002
    vertex 0.0 107.59460097221607 0.0
  endloop
endfacet
facet normal -1.0 0.0 0.0
  outer loop
    vertex 0.0 107.59460097221607 0.0
    vertex 0.0 80.59460097221607 6.000000000000002
    vertex 0.0 94.59460097221607 6.000000000000002
  endloop
endfacet
facet normal -1.0 0.0 0.0
  outer loop
    vertex 0.0 107.59460097221607 0.0
    vertex 0.0 94.59460097221607 6.000000000000002
    vertex 0.0 107.59460097221607 7.000000000000001
  endloop
endfacet
facet normal 0.0 1.0 0.0
  outer loop
    vertex 0.0 107.59460097221607 7.000000000000001
    vertex 96.0 107.59460097221607 0.0
    vertex 0.0 107.59460097221607 0.0
  endloop
endfacet
facet normal 0.0 1.0 0.0
  outer loop
    vertex 96.0 107.59460097221607 0.0
    vertex 0.0 107.59460097221607 7.000000000000001
    vertex 96.0 107.59460097221607 7.000000000000001
  endloop
endfacet
facet normal 1.0 0.0 0.0
  outer loop
    vertex 96.0 107.59460097221607 0.0
    vertex 96.0 56.59460097221608 7.000000000000001
    vertex 96.0 56.59460097221608 0.0
  endloop
endfacet
facet normal 1.0 0.0 0.0
  outer loop
    vertex 96.0 56.59460097221608 7.000000000000001
    vertex 96.0 107.59460097221607 0.0
    vertex 96.0 107.59460097221607 7.000000000000001
  endloop
endfacet
facet normal 0.0 0.0 1.0
  outer loop
    vertex 94.5 58.09460097221607 1.9999999999999998
    vertex 1.5 106.09460097221607 1.9999999999999998
    vertex 1.5 58.09460097221607 1.9999999999999998
  endloop
endfacet
facet normal 0.0 0.0 1.0
  outer loop
    vertex 1.5 106.09460097221607 1.9999999999999998
    vertex 94.5 58.09460097221607 1.9999999999999998
    vertex 94.5 106.09460097221607 1.9999999999999998
  endloop
endfacet
facet normal 0.0 0.0 -1.0
  outer loop
    vertex 96.0 107.59460097221607 0.0
    vertex 0.0 56.59460097221608 0.0
    vertex 0.0 107.59460097221607 0.0
  endloop
endfacet
facet normal 0.0 0.0 -1.0
  outer loop
    vertex 0.0 56.59460097221608 0.0
    vertex 96.0 107.59460097221607 0.0
    vertex 96.0 56.59460097221608 0.0
  endloop
endfacet
facet normal 1.0 0.0 0.0
  outer loop
    vertex 0.7 106.89460097221607 4.000000000000007
    vertex 0.7 57.294600972216074 7.000000000000001
    vertex 0.7 57.294600972216074 4.000000000000007
  endloop
endfacet
facet normal 1.0 0.0 0.0
  outer loop
    vertex 0.7 57.294600972216074 7.000000000000001
    vertex 0.7 106.89460097221607 4.000000000000007
    vertex 0.7 80.59460097221607 6.000000000000002
  endloop
endfacet
facet normal 1.0 0.0 0.0
  outer loop
    vertex 0.7 80.59460097221607 6.000000000000002
    vertex 0.7 106.89460097221607 4.000000000000007
    vertex 0.7 94.59460097221607 6.000000000000002
  endloop
endfacet
facet normal 1.0 0.0 0.0
  outer loop
    vertex 0.7 94.59460097221607 6.000000000000002
    vertex 0.7 106.89460097221607 4.000000000000007
    vertex 0.7 94.59460097221607 7.000000000000001
  endloop
endfacet
facet normal 1.0 0.0 0.0
  outer loop
    vertex 0.7 94.59460097221607 7.000000000000001
    vertex 0.7 106.89460097221607 4.000000000000007
    vertex 0.7 106.89460097221607 7.000000000000001
  endloop
endfacet
facet normal 1.0 0.0 0.0
  outer loop
    vertex 0.7 80.59460097221607 7.000000000000001
    vertex 0.7 57.294600972216074 7.000000000000001
    vertex 0.7 80.59460097221607 6.000000000000002
  endloop
endfacet
facet normal 0.0 -1.0 0.0
  outer loop
    vertex 95.3 106.89460097221607 7.000000000000001
    vertex 0.7 106.89460097221607 4.000000000000007
    vertex 95.3 106.89460097221607 4.000000000000007
  endloop
endfacet
facet normal 0.0 -1.0 0.0
  outer loop
    vertex 0.7 106.89460097221607 4.000000000000007
    vertex 95.3 106.89460097221607 7.000000000000001
    vertex 0.7 106.89460097221607 7.000000000000001
  endloop
endfacet
facet normal 0.0 -1.0 0.0
  outer loop
    vertex 94.5 106.09460097221607 3.999999999999997
    vertex 1.5 106.09460097221607 1.9999999999999998
    vertex 94.5 106.09460097221607 1.9999999999999998
  endloop
endfacet
facet normal 0.0 -1.0 0.0
  outer loop
    vertex 1.5 106.09460097221607 1.9999999999999998
    vertex 94.5 106.09460097221607 3.999999999999997
    vertex 1.5 106.09460097221607 3.999999999999997
  endloop
endfacet
facet normal -1.0 0.0 0.0
  outer loop
    vertex 94.5 106.09460097221607 3.999999999999997
    vertex 94.5 58.09460097221607 1.9999999999999998
    vertex 94.5 58.09460097221607 3.999999999999997
  endloop
endfacet
facet normal -1.0 0.0 0.0
  outer loop
    vertex 94.5 58.09460097221607 1.9999999999999998
    vertex 94.5 106.09460097221607 3.999999999999997
    vertex 94.5 106.09460097221607 1.9999999999999998
  endloop
endfacet
facet normal 0.0 0.0 1.0
  outer loop
    vertex 0.7 57.294600972216074 4.000000000000007
    vertex 1.5 58.09460097221607 3.999999999999997
    vertex 0.7 106.89460097221607 4.000000000000007
  endloop
endfacet
facet normal 0.0 0.0 1.0
  outer loop
    vertex 1.5 58.09460097221607 3.999999999999997
    vertex 0.7 57.294600972216074 4.000000000000007
    vertex 95.3 57.294600972216074 4.000000000000007
  endloop
endfacet
facet normal 0.0 0.0 1.0
  outer loop
    vertex 1.5 58.09460097221607 3.999999999999997
    vertex 95.3 57.294600972216074 4.000000000000007
    vertex 94.5 58.09460097221607 3.999999999999997
  endloop
endfacet
facet normal 0.0 0.0 1.0
  outer loop
    vertex 94.5 58.09460097221607 3.999999999999997
    vertex 95.3 57.294600972216074 4.000000000000007
    vertex 94.5 106.09460097221607 3.999999999999997
  endloop
endfacet
facet normal 0.0 0.0 1.0
  outer loop
    vertex 0.7 106.89460097221607 4.000000000000007
    vertex 1.5 106.09460097221607 3.999999999999997
    vertex 95.3 106.89460097221607 4.000000000000007
  endloop
endfacet
facet normal 0.0 0.0 1.0
  outer loop
    vertex 1.5 106.09460097221607 3.999999999999997
    vertex 0.7 106.89460097221607 4.000000000000007
    vertex 1.5 58.09460097221607 3.999999999999997
  endloop
endfacet
facet normal 0.0 0.0 1.0
  outer loop
    vertex 95.3 106.89460097221607 4.000000000000007
    vertex 1.5 106.09460097221607 3.999999999999997
    vertex 94.5 106.09460097221607 3.999999999999997
  endloop
endfacet
facet normal 0.0 0.0 1.0
  outer loop
    vertex 95.3 106.89460097221607 4.000000000000007
    vertex 94.5 106.09460097221607 3.999999999999997
    vertex 95.3 57.294600972216074 4.000000000000007
  endloop
endfacet
facet normal 1.0 0.0 0.0
  outer loop
    vertex 1.5 106.09460097221607 1.9999999999999998
    vertex 1.5 58.09460097221607 3.999999999999997
    vertex 1.5 58.09460097221607 1.9999999999999998
  endloop
endfacet
facet normal 1.0 0.0 0.0
  outer loop
    vertex 1.5 58.09460097221607 3.999999999999997
    vertex 1.5 106.09460097221607 1.9999999999999998
    vertex 1.5 106.09460097221607 3.999999999999997
  endloop
endfacet
facet normal -1.0 0.0 0.0
  outer loop
    vertex 95.3 106.89460097221607 7.000000000000001
    vertex 95.3 57.294600972216074 4.000000000000007
    vertex 95.3 57.294600972216074 7.000000000000001
  endloop
endfacet
facet normal -1.0 0.0 0.0
  outer loop
    vertex 95.3 57.294600972216074 4.000000000000007
    vertex 95.3 106.89460097221607 7.000000000000001
    vertex 95.3 106.89460097221607 4.000000000000007
  endloop
endfacet
facet normal 0.0 1.0 0.0
  outer loop
    vertex 0.7 57.294600972216074 7.000000000000001
    vertex 95.3 57.294600972216074 4.000000000000007
    vertex 0.7 57.294600972216074 4.000000000000007
  endloop
endfacet
facet normal 0.0 1.0 0.0
  outer loop
    vertex 95.3 57.294600972216074 4.000000000000007
    vertex 0.7 57.294600972216074 7.000000000000001
    vertex 85.0 57.294600972216074 6.500000000000001
  endloop
endfacet
facet normal 0.0 1.0 0.0
  outer loop
    vertex 85.0 57.294600972216074 6.500000000000001
    vertex 0.7 57.294600972216074 7.000000000000001
    vertex 85.0 57.294600972216074 7.000000000000001
  endloop
endfacet
facet normal 0.0 1.0 0.0
  outer loop
    vertex 95.3 57.294600972216074 4.000000000000007
    vertex 94.0 57.294600972216074 6.500000000000001
    vertex 95.3 57.294600972216074 7.000000000000001
  endloop
endfacet
facet normal 0.0 1.0 0.0
  outer loop
    vertex 94.0 57.294600972216074 6.500000000000001
    vertex 95.3 57.294600972216074 4.000000000000007
    vertex 85.0 57.294600972216074 6.500000000000001
  endloop
endfacet
facet normal 0.0 1.0 0.0
  outer loop
    vertex 95.3 57.294600972216074 7.000000000000001
    vertex 94.0 57.294600972216074 6.500000000000001
    vertex 94.0 57.294600972216074 7.000000000000001
  endloop
endfacet
facet normal 0.0 0.0 1.0
  outer loop
    vertex 0.0 56.59460097221608 7.000000000000001
    vertex 0.7 57.294600972216074 7.000000000000001
    vertex 0.0 80.59460097221607 7.000000000000001
  endloop
endfacet
facet normal 0.0 0.0 1.0
  outer loop
    vertex 0.7 57.294600972216074 7.000000000000001
    vertex 0.0 56.59460097221608 7.000000000000001
    vertex 85.0 56.59460097221608 7.000000000000001
  endloop
endfacet
facet normal 0.0 0.0 1.0
  outer loop
    vertex 0.7 57.294600972216074 7.000000000000001
    vertex 85.0 56.59460097221608 7.000000000000001
    vertex 85.0 57.294600972216074 7.000000000000001
  endloop
endfacet
facet normal 0.0 0.0 1.0
  outer loop
    vertex 0.7 80.59460097221607 7.000000000000001
    vertex 0.0 80.59460097221607 7.000000000000001
    vertex 0.7 57.294600972216074 7.000000000000001
  endloop
endfacet
facet normal 0.0 1.0 0.0
  outer loop
    vertex 1.5 58.09460097221607 3.999999999999997
    vertex 94.5 58.09460097221607 1.9999999999999998
    vertex 1.5 58.09460097221607 1.9999999999999998
  endloop
endfacet
facet normal 0.0 1.0 0.0
  outer loop
    vertex 94.5 58.09460097221607 1.9999999999999998
    vertex 1.5 58.09460097221607 3.999999999999997
    vertex 94.5 58.09460097221607 3.999999999999997
  endloop
endfacet
facet normal 0.0 0.0 1.0
  outer loop
    vertex 94.0 56.59460097221608 6.500000000000001
    vertex 85.0 57.294600972216074 6.500000000000001
    vertex 85.0 56.59460097221608 6.500000000000001
  endloop
endfacet
facet normal 0.0 0.0 1.0
  outer loop
    vertex 85.0 57.294600972216074 6.500000000000001
    vertex 94.0 56.59460097221608 6.500000000000001
    vertex 94.0 57.294600972216074 6.500000000000001
  endloop
endfacet
facet normal 0.0 1.0 0.0
  outer loop
    vertex 0.0 80.59460097221607 7.000000000000001
    vertex 0.7 80.59460097221607 6.000000000000002
    vertex 0.0 80.59460097221607 6.000000000000002
  endloop
endfacet
facet normal 0.0 1.0 0.0
  outer loop
    vertex 0.7 80.59460097221607 6.000000000000002
    vertex 0.0 80.59460097221607 7.000000000000001
    vertex 0.7 80.59460097221607 7.000000000000001
  endloop
endfacet
facet normal 1.0 0.0 0.0
  outer loop
    vertex 85.0 57.294600972216074 6.500000000000001
    vertex 85.0 56.59460097221608 7.000000000000001
    vertex 85.0 56.59460097221608 6.500000000000001
  endloop
endfacet
facet normal 1.0 0.0 0.0
  outer loop
    vertex 85.0 56.59460097221608 7.000000000000001
    vertex 85.0 57.294600972216074 6.500000000000001
    vertex 85.0 57.294600972216074 7.000000000000001
  endloop
endfacet
facet normal -1.0 0.0 0.0
  outer loop
    vertex 94.0 57.294600972216074 7.000000000000001
    vertex 94.0 56.59460097221608 6.500000000000001
    vertex 94.0 56.59460097221608 7.000000000000001
  endloop
endfacet
facet normal -1.0 0.0 0.0
  outer loop
    vertex 94.0 56.59460097221608 6.500000000000001
    vertex 94.0 57.294600972216074 7.000000000000001
    vertex 94.0 57.294600972216074 6.500000000000001
  endloop
endfacet
facet normal 0.0 0.0 1.0
  outer loop
    vertex 0.7 80.59460097221607 6.000000000000002
    vertex 0.0 94.59460097221607 6.000000000000002
    vertex 0.0 80.59460097221607 6.000000000000002
  endloop
endfacet
facet normal 0.0 0.0 1.0
  outer loop
    vertex 0.0 94.59460097221607 6.000000000000002
    vertex 0.7 80.59460097221607 6.000000000000002
    vertex 0.7 94.59460097221607 6.000000000000002
  endloop
endfacet
facet normal -0.0 -1.0 -0.0
  outer loop
    vertex 0.7 94.59460097221607 7.000000000000001
    vertex 0.0 94.59460097221607 6.000000000000002
    vertex 0.7 94.59460097221607 6.000000000000002
  endloop
endfacet
facet normal -0.0 -1.0 -0.0
  outer loop
    vertex 0.0 94.59460097221607 6.000000000000002
    vertex 0.7 94.59460097221607 7.000000000000001
    vertex 0.0 94.59460097221607 7.000000000000001
  endloop
endfacet
facet normal 0.0 0.0 1.0
  outer loop
    vertex 96.0 56.59460097221608 7.000000000000001
    vertex 94.0 57.294600972216074 7.000000000000001
    vertex 94.0 56.59460097221608 7.000000000000001
  endloop
endfacet
facet normal 0.0 0.0 1.0
  outer loop
    vertex 94.0 57.294600972216074 7.000000000000001
    vertex 96.0 56.59460097221608 7.000000000000001
    vertex 95.3 57.294600972216074 7.000000000000001
  endloop
endfacet
facet normal 0.0 0.0 1.0
  outer loop
    vertex 95.3 57.294600972216074 7.000000000000001
    vertex 96.0 56.59460097221608 7.000000000000001
    vertex 95.3 106.89460097221607 7.000000000000001
  endloop
endfacet
facet normal 0.0 0.0 1.0
  outer loop
    vertex 0.7 94.59460097221607 7.000000000000001
    vertex 0.0 107.59460097221607 7.000000000000001
    vertex 0.0 94.59460097221607 7.000000000000001
  endloop
endfacet
facet normal 0.0 0.0 1.0
  outer loop
    vertex 0.0 107.59460097221607 7.000000000000001
    vertex 0.7 94.59460097221607 7.000000000000001
    vertex 0.7 106.89460097221607 7.000000000000001
  endloop
endfacet
facet normal 0.0 0.0 1.0
  outer loop
    vertex 0.0 107.59460097221607 7.000000000000001
    vertex 0.7 106.89460097221607 7.000000000000001
    vertex 96.0 107.59460097221607 7.000000000000001
  endloop
endfacet
facet normal 0.0 0.0 1.0
  outer loop
    vertex 96.0 107.59460097221607 7.000000000000001
    vertex 0.7 106.89460097221607 7.000000000000001
    vertex 95.3 106.89460097221607 7.000000000000001
  endloop
endfacet
facet normal 0.0 0.0 1.0
  outer loop
    vertex 96.0 107.59460097221607 7.000000000000001
    vertex 95.3 106.89460097221607 7.000000000000001
    vertex 96.0 56.59460097221608 7.000000000000001
  endloop
endfacet
endsolid case_emg
