solid case_emg
facet normal 3.671831357484242e-18 -1.0 0.0
  outer loop
    vertex 96.0 3.524958103184872e-16 14.499999999999998
    vertex 0.0 0.0 0.0
    vertex 96.0 3.524958103184872e-16 0.0
  endloop
endfacet
facet normal 3.671831357484242e-18 -1.0 0.0
  outer loop
    vertex 0.0 0.0 0.0
    vertex 96.0 3.524958103184872e-16 14.499999999999998
    vertex 0.0 0.0 14.499999999999998
  endloop
endfacet
facet normal 1.0 0.0 0.0
  outer loop
    vertex 96.0 51.0 0.0
    vertex 96.0 3.524958103184872e-16 14.499999999999998
    vertex 96.0 3.524958103184872e-16 0.0
  endloop
endfacet
facet normal 1.0 0.0 0.0
  outer loop
    vertex 96.0 3.524958103184872e-16 14.499999999999998
    vertex 96.0 51.0 0.0
    vertex 96.0 33.5 7.5
  endloop
endfacet
facet normal 1.0 0.0 0.0
  outer loop
    vertex 96.0 33.5 7.5
    vertex 96.0 51.0 0.0
    vertex 96.0 48.5 7.5
  endloop
endfacet
facet normal 1.0 0.0 0.0
  outer loop
    vertex 96.0 48.5 7.5
    vertex 96.0 51.0 0.0
    vertex 96.0 48.5 9.799999999999999
  endloop
endfacet
facet normal 1.0 0.0 0.0
  outer loop
    vertex 96.0 3.524958103184872e-16 14.499999999999998
    vertex 96.0 33.5 9.799999999999999
    vertex 96.0 51.0 14.499999999999998
  endloop
endfacet
facet normal 1.0 0.0 0.0
  outer loop
    vertex 96.0 33.5 9.799999999999999
    vertex 96.0 3.524958103184872e-16 14.499999999999998
    vertex 96.0 33.5 7.5
  endloop
endfacet
facet normal 1.0 0.0 0.0
  outer loop
    vertex 96.0 51.0 14.499999999999998
    vertex 96.0 33.5 9.799999999999999
    vertex 96.0 48.5 9.799999999999999
  endloop
endfacet
facet normal 1.0 0.0 0.0
  outer loop
    vertex 96.0 51.0 14.499999999999998
    vertex 96.0 48.5 9.799999999999999
    vertex 96.0 51.0 0.0
  endloop
endfacet
facet normal 0.0 0.0 1.0
  outer loop
    vertex 0.8000000000000002 26.99999999999999 14.499999999999998
    vertex 0.0 51.0 14.499999999999998
    vertex -2.6437185773886536e-16 26.999999999999996 14.499999999999998
  endloop
endfacet
facet normal 0.0 0.0 1.0
  outer loop
    vertex 0.0 51.0 14.499999999999998
    vertex 0.8000000000000002 26.99999999999999 14.499999999999998
    vertex 0.8000000000000002 50.199999999999996 14.499999999999998
  endloop
endfacet
facet normal 0.0 0.0 1.0
  outer loop
    vertex 0.0 51.0 14.499999999999998
    vertex 0.8000000000000002 50.199999999999996 14.499999999999998
    vertex 85.0 51.0 14.499999999999998
  endloop
endfacet
facet normal 0.0 0.0 1.0
  outer loop
    vertex 85.0 51.0 14.499999999999998
    vertex 0.8000000000000002 50.199999999999996 14.499999999999998
    vertex 85.0 50.199999999999996 14.499999999999998
  endloop
endfacet
facet normal 0.0 0.0 -1.0
  outer loop
    vertex 96.0 51.0 0.0
    vertex 0.0 0.0 0.0
    vertex 0.0 51.0 0.0
  endloop
endfacet
facet normal 0.0 0.0 -1.0
  outer loop
    vertex 0.0 0.0 0.0
    vertex 96.0 51.0 0.0
    vertex 96.0 3.524958103184872e-16 0.0
  endloop
endfacet
facet normal -1.0 0.0 0.0
  outer loop
    vertex 93.0 31.5 9.5
    vertex 93.0 21.5 1.9999999999999998
    vertex 93.0 21.5 9.5
  endloop
endfacet
facet normal -1.0 0.0 0.0
  outer loop
    vertex 93.0 21.5 1.9999999999999998
    vertex 93.0 31.5 9.5
    vertex 93.0 31.5 1.9999999999999998
  endloop
endfacet
facet normal 3.73406578727211e-18 -1.0 0.0
  outer loop
    vertex 95.19999999999999 0.8000000000000005 16.499999999999996
    vertex 0.8000000000000002 0.8000000000000002 14.499999999999998
    vertex 95.19999999999999 0.8000000000000005 14.499999999999998
  endloop
endfacet
facet normal 3.73406578727211e-18 -1.0 0.0
  outer loop
    vertex 0.8000000000000002 0.8000000000000002 14.499999999999998
    vertex 95.19999999999999 0.8000000000000005 16.499999999999996
    vertex 0.8000000000000002 0.8000000000000002 16.499999999999996
  endloop
endfacet
facet normal 1.0 0.0 0.0
  outer loop
    vertex 3.499999999999999 47.5 1.9999999999999998
    vertex 3.499999999999999 3.499999999999998 9.5
    vertex 3.499999999999999 3.499999999999998 1.9999999999999998
  endloop
endfacet
facet normal 1.0 0.0 0.0
  outer loop
    vertex 3.499999999999999 3.499999999999998 9.5
    vertex 3.499999999999999 47.5 1.9999999999999998
    vertex 3.499999999999999 47.5 9.5
  endloop
endfacet
facet normal 0.0 -1.0 0.0
  outer loop
    vertex 69.79999999999994 47.5 9.5
    vertex 3.499999999999999 47.5 1.9999999999999998
    vertex 69.79999999999994 47.5 1.9999999999999998
  endloop
endfacet
facet normal 0.0 -1.0 0.0
  outer loop
    vertex 3.499999999999999 47.5 1.9999999999999998
    vertex 69.79999999999994 47.5 9.5
    vertex 3.499999999999999 47.5 9.5
  endloop
endfacet
facet normal -0.0 -0.0 -1.0
  outer loop
    vertex 94.5 31.499999999999993 11.699999999999998
    vertex 94.0 1.5 11.699999999999998
    vertex 94.0 31.499999999999993 11.699999999999998
  endloop
endfacet
facet normal -0.0 -0.0 -1.0
  outer loop
    vertex 94.0 1.5 11.699999999999998
    vertex 94.5 31.499999999999993 11.699999999999998
    vertex 94.5 1.5 11.699999999999998
  endloop
endfacet
facet normal -1.0 0.0 0.0
  outer loop
    vertex 0.8000000000000002 0.8000000000000002 16.499999999999996
    vertex 0.8000000000000002 12.999999999999998 15.499999999999996
    vertex 0.8000000000000002 0.8000000000000002 14.499999999999998
  endloop
endfacet
facet normal -1.0 0.0 0.0
  outer loop
    vertex 0.8000000000000002 12.999999999999998 15.499999999999996
    vertex 0.8000000000000002 0.8000000000000002 16.499999999999996
    vertex 0.8000000000000002 50.199999999999996 16.499999999999996
  endloop
endfacet
facet normal -1.0 0.0 0.0
  outer loop
    vertex 0.8000000000000002 12.999999999999998 15.499999999999996
    vertex 0.8000000000000002 50.199999999999996 16.499999999999996
    vertex 0.8000000000000002 26.99999999999999 15.5
  endloop
endfacet
facet normal -1.0 0.0 0.0
  outer loop
    vertex 0.8000000000000002 26.99999999999999 15.5
    vertex 0.8000000000000002 50.199999999999996 16.499999999999996
    vertex 0.8000000000000002 26.99999999999999 14.499999999999998
  endloop
endfacet
facet normal -1.0 0.0 0.0
  outer loop
    vertex 0.8000000000000002 26.99999999999999 14.499999999999998
    vertex 0.8000000000000002 50.199999999999996 16.499999999999996
    vertex 0.8000000000000002 50.199999999999996 14.499999999999998
  endloop
endfacet
facet normal -1.0 0.0 0.0
  outer loop
    vertex 0.8000000000000002 12.999999999999998 14.499999999999998
    vertex 0.8000000000000002 0.8000000000000002 14.499999999999998
    vertex 0.8000000000000002 12.999999999999998 15.499999999999996
  endloop
endfacet
facet normal 0.0 0.0 1.0
  outer loop
    vertex 62.5 1.5 9.5
    vertex 3.499999999999999 3.499999999999998 9.5
    vertex 1.4999999999999993 1.4999999999999982 9.5
  endloop
endfacet
facet normal 0.0 0.0 1.0
  outer loop
    vertex 3.499999999999999 3.499999999999998 9.5
    vertex 62.5 1.5 9.5
    vertex 62.5 3.499999999999998 9.5
  endloop
endfacet
facet normal 0.0 0.0 1.0
  outer loop
    vertex 1.4999999999999991 49.5 9.5
    vertex 3.499999999999999 47.5 9.5
    vertex 69.79999999999994 49.5 9.5
  endloop
endfacet
facet normal 0.0 0.0 1.0
  outer loop
    vertex 3.499999999999999 47.5 9.5
    vertex 1.4999999999999991 49.5 9.5
    vertex 1.4999999999999993 1.4999999999999982 9.5
  endloop
endfacet
facet normal 0.0 0.0 1.0
  outer loop
    vertex 3.499999999999999 47.5 9.5
    vertex 1.4999999999999993 1.4999999999999982 9.5
    vertex 3.499999999999999 3.499999999999998 9.5
  endloop
endfacet
facet normal 0.0 0.0 1.0
  outer loop
    vertex 69.79999999999994 49.5 9.5
    vertex 3.499999999999999 47.5 9.5
    vertex 69.79999999999994 47.5 9.5
  endloop
endfacet
facet normal 1.0 0.0 0.0
  outer loop
    vertex 69.79999999999994 49.5 1.9999999999999998
    vertex 69.79999999999994 47.5 9.5
    vertex 69.79999999999994 47.5 1.9999999999999998
  endloop
endfacet
facet normal 1.0 0.0 0.0
  outer loop
    vertex 69.79999999999994 47.5 9.5
    vertex 69.79999999999994 49.5 1.9999999999999998
    vertex 69.79999999999994 49.5 9.5
  endloop
endfacet
facet normal 0.0 0.0 1.0
  outer loop
    vertex 0.8000000000000002 0.8000000000000002 16.499999999999996
    vertex 1.5 1.5 16.499999999999996
    vertex 0.8000000000000002 50.199999999999996 16.499999999999996
  endloop
endfacet
facet normal 0.0 0.0 1.0
  outer loop
    vertex 1.5 1.5 16.499999999999996
    vertex 0.8000000000000002 0.8000000000000002 16.499999999999996
    vertex 95.19999999999999 0.8000000000000005 16.499999999999996
  endloop
endfacet
facet normal 0.0 0.0 1.0
  outer loop
    vertex 1.5 1.5 16.499999999999996
    vertex 95.19999999999999 0.8000000000000005 16.499999999999996
    vertex 94.5 1.5 16.499999999999996
  endloop
endfacet
facet normal 0.0 0.0 1.0
  outer loop
    vertex 94.5 1.5 16.499999999999996
    vertex 95.19999999999999 0.8000000000000005 16.499999999999996
    vertex 94.5 49.5 16.499999999999996
  endloop
endfacet
facet normal 0.0 0.0 1.0
  outer loop
    vertex 0.8000000000000002 50.199999999999996 16.499999999999996
    vertex 1.5 49.5 16.499999999999996
    vertex 95.19999999999999 50.199999999999996 16.499999999999996
  endloop
endfacet
facet normal 0.0 0.0 1.0
  outer loop
    vertex 1.5 49.5 16.499999999999996
    vertex 0.8000000000000002 50.199999999999996 16.499999999999996
    vertex 1.5 1.5 16.499999999999996
  endloop
endfacet
facet normal 0.0 0.0 1.0
  outer loop
    vertex 95.19999999999999 50.199999999999996 16.499999999999996
    vertex 1.5 49.5 16.499999999999996
    vertex 94.5 49.5 16.499999999999996
  endloop
endfacet
facet normal 0.0 0.0 1.0
  outer loop
    vertex 95.19999999999999 50.199999999999996 16.499999999999996
    vertex 94.5 49.5 16.499999999999996
    vertex 95.19999999999999 0.8000000000000005 16.499999999999996
  endloop
endfacet
facet normal 0.0 1.0 0.0
  outer loop
    vertex 0.8000000000000002 50.199999999999996 16.499999999999996
    vertex 85.0 50.199999999999996 14.499999999999998
    vertex 0.8000000000000002 50.199999999999996 14.499999999999998
  endloop
endfacet
facet normal 0.0 1.0 0.0
  outer loop
    vertex 85.0 50.199999999999996 14.499999999999998
    vertex 0.8000000000000002 50.199999999999996 16.499999999999996
    vertex 85.0 50.199999999999996 14.999999999999998
  endloop
endfacet
facet normal 0.0 1.0 0.0
  outer loop
    vertex 85.0 50.199999999999996 14.999999999999998
    vertex 0.8000000000000002 50.199999999999996 16.499999999999996
    vertex 94.0 50.199999999999996 14.999999999999998
  endloop
endfacet
facet normal 0.0 1.0 0.0
  outer loop
    vertex 94.0 50.199999999999996 14.999999999999998
    vertex 95.19999999999999 50.199999999999996 14.499999999999998
    vertex 94.0 50.199999999999996 14.499999999999998
  endloop
endfacet
facet normal 0.0 1.0 0.0
  outer loop
    vertex 95.19999999999999 50.199999999999996 14.499999999999998
    vertex 94.0 50.199999999999996 14.999999999999998
    vertex 95.19999999999999 50.199999999999996 16.499999999999996
  endloop
endfacet
facet normal 0.0 1.0 0.0
  outer loop
    vertex 95.19999999999999 50.199999999999996 16.499999999999996
    vertex 94.0 50.199999999999996 14.999999999999998
    vertex 0.8000000000000002 50.199999999999996 16.499999999999996
  endloop
endfacet
facet normal -3.547145792710572e-32 -1.0 6.143719953858678e-33
  outer loop
    vertex 94.5 49.5 1.9999999999999998
    vertex 94.0 49.5 11.0
    vertex 69.79999999999994 49.5 1.9999999999999998
  endloop
endfacet
facet normal -3.547145792710572e-32 -1.0 6.143719953858678e-33
  outer loop
    vertex 94.0 49.5 11.0
    vertex 94.5 49.5 1.9999999999999998
    vertex 94.5 49.5 11.499999999999998
  endloop
endfacet
facet normal -3.547145792710572e-32 -1.0 6.143719953858678e-33
  outer loop
    vertex 69.79999999999994 49.5 1.9999999999999998
    vertex 94.0 49.5 11.0
    vertex 69.79999999999994 49.5 9.5
  endloop
endfacet
facet normal -3.547145792710572e-32 -1.0 6.143719953858678e-33
  outer loop
    vertex 69.79999999999994 49.5 9.5
    vertex 94.0 49.5 11.0
    vertex 1.4999999999999991 49.5 9.5
  endloop
endfacet
facet normal -3.547145792710572e-32 -1.0 6.143719953858678e-33
  outer loop
    vertex 94.0 49.5 11.0
    vertex 94.5 49.5 11.499999999999998
    vertex 94.0 49.5 11.499999999999998
  endloop
endfacet
facet normal -3.547145792710572e-32 -1.0 6.143719953858678e-33
  outer loop
    vertex 94.5 49.5 16.499999999999996
    vertex 94.0 49.5 11.499999999999998
    vertex 94.5 49.5 11.499999999999998
  endloop
endfacet
facet normal -3.547145792710572e-32 -1.0 6.143719953858678e-33
  outer loop
    vertex 94.0 49.5 11.499999999999998
    vertex 94.5 49.5 16.499999999999996
    vertex 94.0 49.5 14.999999999999998
  endloop
endfacet
facet normal -3.547145792710572e-32 -1.0 6.143719953858678e-33
  outer loop
    vertex 94.0 49.5 14.999999999999998
    vertex 94.5 49.5 16.499999999999996
    vertex 85.0 49.5 14.999999999999998
  endloop
endfacet
facet normal -3.547145792710572e-32 -1.0 6.143719953858678e-33
  outer loop
    vertex 1.4999999999999991 49.5 9.5
    vertex 85.0 49.5 11.0
    vertex 1.5 49.5 16.499999999999996
  endloop
endfacet
facet normal -3.547145792710572e-32 -1.0 6.143719953858678e-33
  outer loop
    vertex 85.0 49.5 11.0
    vertex 1.4999999999999991 49.5 9.5
    vertex 94.0 49.5 11.0
  endloop
endfacet
facet normal -3.547145792710572e-32 -1.0 6.143719953858678e-33
  outer loop
    vertex 1.5 49.5 16.499999999999996
    vertex 85.0 49.5 11.0
    vertex 85.0 49.5 14.999999999999998
  endloop
endfacet
facet normal -3.547145792710572e-32 -1.0 6.143719953858678e-33
  outer loop
    vertex 1.5 49.5 16.499999999999996
    vertex 85.0 49.5 14.999999999999998
    vertex 94.5 49.5 16.499999999999996
  endloop
endfacet
facet normal 0.0 1.0 0.0
  outer loop
    vertex 3.499999999999999 3.499999999999998 1.9999999999999998
    vertex 62.5 3.499999999999998 9.5
    vertex 62.5 3.499999999999998 1.9999999999999991
  endloop
endfacet
facet normal 0.0 1.0 0.0
  outer loop
    vertex 62.5 3.499999999999998 9.5
    vertex 3.499999999999999 3.499999999999998 1.9999999999999998
    vertex 3.499999999999999 3.499999999999998 9.5
  endloop
endfacet
facet normal 1.0 0.0 0.0
  outer loop
    vertex 95.19999999999999 50.199999999999996 14.499999999999998
    vertex 95.19999999999999 0.8000000000000005 16.499999999999996
    vertex 95.19999999999999 0.8000000000000005 14.499999999999998
  endloop
endfacet
facet normal 1.0 0.0 0.0
  outer loop
    vertex 95.19999999999999 0.8000000000000005 16.499999999999996
    vertex 95.19999999999999 50.199999999999996 14.499999999999998
    vertex 95.19999999999999 50.199999999999996 16.499999999999996
  endloop
endfacet
facet normal 1.0 0.0 0.0
  outer loop
    vertex 62.5 3.499999999999998 1.9999999999999991
    vertex 62.5 1.5 9.5
    vertex 62.5 1.5 1.9999999999999996
  endloop
endfacet
facet normal 1.0 0.0 0.0
  outer loop
    vertex 62.5 1.5 9.5
    vertex 62.5 3.499999999999998 1.9999999999999991
    vertex 62.5 3.499999999999998 9.5
  endloop
endfacet
facet normal -1.0208023466236739e-15 1.0 1.595003666599492e-16
  outer loop
    vertex -2.6437185773886536e-16 12.999999999999996 14.499999999999998
    vertex 1.4999999999999993 12.999999999999998 10.999999999999998
    vertex -5.287437154777307e-16 12.999999999999998 10.999999999999998
  endloop
endfacet
facet normal -1.0208023466236739e-15 1.0 1.595003666599492e-16
  outer loop
    vertex 1.4999999999999993 12.999999999999998 10.999999999999998
    vertex -2.6437185773886536e-16 12.999999999999996 14.499999999999998
    vertex 0.8000000000000002 12.999999999999998 14.499999999999998
  endloop
endfacet
facet normal -1.0208023466236739e-15 1.0 1.595003666599492e-16
  outer loop
    vertex 1.4999999999999993 12.999999999999998 10.999999999999998
    vertex 0.8000000000000002 12.999999999999998 14.499999999999998
    vertex 1.4999999999999993 12.999999999999998 15.499999999999996
  endloop
endfacet
facet normal -1.0208023466236739e-15 1.0 1.595003666599492e-16
  outer loop
    vertex 1.4999999999999993 12.999999999999998 15.499999999999996
    vertex 0.8000000000000002 12.999999999999998 14.499999999999998
    vertex 0.8000000000000002 12.999999999999998 15.499999999999996
  endloop
endfacet
facet normal 0.0 1.0 0.0
  outer loop
    vertex 0.0 51.0 14.499999999999998
    vertex 96.0 51.0 0.0
    vertex 0.0 51.0 0.0
  endloop
endfacet
facet normal 0.0 1.0 0.0
  outer loop
    vertex 96.0 51.0 0.0
    vertex 0.0 51.0 14.499999999999998
    vertex 85.0 51.0 11.0
  endloop
endfacet
facet normal 0.0 1.0 0.0
  outer loop
    vertex 85.0 51.0 11.0
    vertex 0.0 51.0 14.499999999999998
    vertex 85.0 51.0 14.499999999999998
  endloop
endfacet
facet normal 0.0 1.0 0.0
  outer loop
    vertex 96.0 51.0 0.0
    vertex 94.0 51.0 11.0
    vertex 96.0 51.0 14.499999999999998
  endloop
endfacet
facet normal 0.0 1.0 0.0
  outer loop
    vertex 94.0 51.0 11.0
    vertex 96.0 51.0 0.0
    vertex 85.0 51.0 11.0
  endloop
endfacet
facet normal 0.0 1.0 0.0
  outer loop
    vertex 96.0 51.0 14.499999999999998
    vertex 94.0 51.0 11.0
    vertex 94.0 51.0 14.499999999999998
  endloop
endfacet
facet normal -1.0 0.0 0.0
  outer loop
    vertex 94.0 50.199999999999996 14.999999999999998
    vertex 94.0 49.5 11.499999999999998
    vertex 94.0 49.5 14.999999999999998
  endloop
endfacet
facet normal -1.0 0.0 0.0
  outer loop
    vertex 94.0 49.5 11.499999999999998
    vertex 94.0 50.199999999999996 14.999999999999998
    vertex 94.0 49.5 11.0
  endloop
endfacet
facet normal -1.0 0.0 0.0
  outer loop
    vertex 94.0 49.5 11.0
    vertex 94.0 50.199999999999996 14.999999999999998
    vertex 94.0 50.199999999999996 14.499999999999998
  endloop
endfacet
facet normal -1.0 0.0 0.0
  outer loop
    vertex 94.0 49.5 11.0
    vertex 94.0 50.199999999999996 14.499999999999998
    vertex 94.0 51.0 11.0
  endloop
endfacet
facet normal -1.0 0.0 0.0
  outer loop
    vertex 94.0 51.0 11.0
    vertex 94.0 50.199999999999996 14.499999999999998
    vertex 94.0 51.0 14.499999999999998
  endloop
endfacet
facet normal 0.0 0.0 1.0
  outer loop
    vertex 1.4999999999999993 12.999999999999998 10.999999999999998
    vertex -5.287437154777307e-16 26.99999999999999 10.999999999999998
    vertex -5.287437154777307e-16 12.999999999999998 10.999999999999998
  endloop
endfacet
facet normal 0.0 0.0 1.0
  outer loop
    vertex -5.287437154777307e-16 26.99999999999999 10.999999999999998
    vertex 1.4999999999999993 12.999999999999998 10.999999999999998
    vertex 1.4999999999999993 26.99999999999999 10.999999999999998
  endloop
endfacet
facet normal 1.0 0.0 0.0
  outer loop
    vertex 85.0 51.0 11.0
    vertex 85.0 49.5 14.999999999999998
    vertex 85.0 49.5 11.0
  endloop
endfacet
facet normal 1.0 0.0 0.0
  outer loop
    vertex 85.0 49.5 14.999999999999998
    vertex 85.0 51.0 11.0
    vertex 85.0 50.199999999999996 14.499999999999998
  endloop
endfacet
facet normal 1.0 0.0 0.0
  outer loop
    vertex 85.0 50.199999999999996 14.499999999999998
    vertex 85.0 51.0 11.0
    vertex 85.0 51.0 14.499999999999998
  endloop
endfacet
facet normal 1.0 0.0 0.0
  outer loop
    vertex 85.0 50.199999999999996 14.999999999999998
    vertex 85.0 49.5 14.999999999999998
    vertex 85.0 50.199999999999996 14.499999999999998
  endloop
endfacet
facet normal 0.0 0.0 1.0
  outer loop
    vertex 94.0 49.5 11.0
    vertex 85.0 51.0 11.0
    vertex 85.0 49.5 11.0
  endloop
endfacet
facet normal 0.0 0.0 1.0
  outer loop
    vertex 85.0 51.0 11.0
    vertex 94.0 49.5 11.0
    vertex 94.0 51.0 11.0
  endloop
endfacet
facet normal -4.1404970969214455e-19 -5.559540456892698e-18 1.0
  outer loop
    vertex 62.5 3.499999999999998 1.9999999999999991
    vertex 3.499999999999999 47.5 1.9999999999999998
    vertex 3.499999999999999 3.499999999999998 1.9999999999999998
  endloop
endfacet
facet normal -4.1404970969214455e-19 -5.559540456892698e-18 1.0
  outer loop
    vertex 3.499999999999999 47.5 1.9999999999999998
    vertex 62.5 3.499999999999998 1.9999999999999991
    vertex 69.79999999999994 47.5 1.9999999999999998
  endloop
endfacet
facet normal -4.1404970969214455e-19 -5.559540456892698e-18 1.0
  outer loop
    vertex 94.5 1.5 1.9999999999999998
    vertex 62.5 3.499999999999998 1.9999999999999991
    vertex 62.5 1.5 1.9999999999999996
  endloop
endfacet
facet normal -4.1404970969214455e-19 -5.559540456892698e-18 1.0
  outer loop
    vertex 62.5 3.499999999999998 1.9999999999999991
    vertex 94.5 1.5 1.9999999999999998
    vertex 69.79999999999994 47.5 1.9999999999999998
  endloop
endfacet
facet normal -4.1404970969214455e-19 -5.559540456892698e-18 1.0
  outer loop
    vertex 69.79999999999994 47.5 1.9999999999999998
    vertex 94.5 1.5 1.9999999999999998
    vertex 69.79999999999994 49.5 1.9999999999999998
  endloop
endfacet
facet normal -4.1404970969214455e-19 -5.559540456892698e-18 1.0
  outer loop
    vertex 69.79999999999994 49.5 1.9999999999999998
    vertex 94.5 1.5 1.9999999999999998
    vertex 93.0 21.5 1.9999999999999998
  endloop
endfacet
facet normal -4.1404970969214455e-19 -5.559540456892698e-18 1.0
  outer loop
    vertex 93.0 21.5 1.9999999999999998
    vertex 94.5 1.5 1.9999999999999998
    vertex 94.5 21.5 1.9999999999999998
  endloop
endfacet
facet normal -4.1404970969214455e-19 -5.559540456892698e-18 1.0
  outer loop
    vertex 69.79999999999994 49.5 1.9999999999999998
    vertex 93.0 31.5 1.9999999999999998
    vertex 94.5 49.5 1.9999999999999998
  endloop
endfacet
facet normal -4.1404970969214455e-19 -5.559540456892698e-18 1.0
  outer loop
    vertex 93.0 31.5 1.9999999999999998
    vertex 69.79999999999994 49.5 1.9999999999999998
    vertex 93.0 21.5 1.9999999999999998
  endloop
endfacet
facet normal -4.1404970969214455e-19 -5.559540456892698e-18 1.0
  outer loop
    vertex 94.5 49.5 1.9999999999999998
    vertex 93.0 31.5 1.9999999999999998
    vertex 94.5 31.499999999999993 1.9999999999999998
  endloop
endfacet
facet normal -1.0 1.2404365742160727e-18 -1.2926294733104388e-17
  outer loop
    vertex -2.6437185773886536e-16 12.999999999999996 14.499999999999998
    vertex 0.0 0.0 0.0
    vertex 0.0 0.0 14.499999999999998
  endloop
endfacet
facet normal -1.0 1.2404365742160727e-18 -1.2926294733104388e-17
  outer loop
    vertex 0.0 0.0 0.0
    vertex -2.6437185773886536e-16 12.999999999999996 14.499999999999998
    vertex -5.287437154777307e-16 12.999999999999998 10.999999999999998
  endloop
endfacet
facet normal -1.0 1.2404365742160727e-18 -1.2926294733104388e-17
  outer loop
    vertex 0.0 0.0 0.0
    vertex -5.287437154777307e-16 12.999999999999998 10.999999999999998
    vertex 0.0 51.0 0.0
  endloop
endfacet
facet normal -1.0 1.2404365742160727e-18 -1.2926294733104388e-17
  outer loop
    vertex 0.0 51.0 0.0
    vertex -5.287437154777307e-16 12.999999999999998 10.999999999999998
    vertex -5.287437154777307e-16 26.99999999999999 10.999999999999998
  endloop
endfacet
facet normal -1.0 1.2404365742160727e-18 -1.2926294733104388e-17
  outer loop
    vertex 0.0 51.0 0.0
    vertex -5.287437154777307e-16 26.99999999999999 10.999999999999998
    vertex -2.6437185773886536e-16 26.999999999999996 14.499999999999998
  endloop
endfacet
facet normal -1.0 1.2404365742160727e-18 -1.2926294733104388e-17
  outer loop
    vertex 0.0 51.0 0.0
    vertex -2.6437185773886536e-16 26.999999999999996 14.499999999999998
    vertex 0.0 51.0 14.499999999999998
  endloop
endfacet
facet normal 0.0 2.0142617732484995e-16 -1.0
  outer loop
    vertex 1.4999999999999993 26.99999999999999 15.5
    vertex 0.8000000000000002 12.999999999999998 15.499999999999996
    vertex 0.8000000000000002 26.99999999999999 15.5
  endloop
endfacet
facet normal 0.0 2.0142617732484995e-16 -1.0
  outer loop
    vertex 0.8000000000000002 12.999999999999998 15.499999999999996
    vertex 1.4999999999999993 26.99999999999999 15.5
    vertex 1.4999999999999993 12.999999999999998 15.499999999999996
  endloop
endfacet
facet normal -2.0416046932473473e-15 -1.0 3.1900073331989797e-16
  outer loop
    vertex 1.4999999999999993 26.99999999999999 15.5
    vertex -5.287437154777307e-16 26.99999999999999 10.999999999999998
    vertex 1.4999999999999993 26.99999999999999 10.999999999999998
  endloop
endfacet
facet normal -2.0416046932473473e-15 -1.0 3.1900073331989797e-16
  outer loop
    vertex -5.287437154777307e-16 26.99999999999999 10.999999999999998
    vertex 1.4999999999999993 26.99999999999999 15.5
    vertex 0.8000000000000002 26.99999999999999 14.499999999999998
  endloop
endfacet
facet normal -2.0416046932473473e-15 -1.0 3.1900073331989797e-16
  outer loop
    vertex 0.8000000000000002 26.99999999999999 14.499999999999998
    vertex 1.4999999999999993 26.99999999999999 15.5
    vertex 0.8000000000000002 26.99999999999999 15.5
  endloop
endfacet
facet normal -2.0416046932473473e-15 -1.0 3.1900073331989797e-16
  outer loop
    vertex -2.6437185773886536e-16 26.999999999999996 14.499999999999998
    vertex -5.287437154777307e-16 26.99999999999999 10.999999999999998
    vertex 0.8000000000000002 26.99999999999999 14.499999999999998
  endloop
endfacet
facet normal 0.0 0.0 1.0
  outer loop
    vertex 0.0 0.0 14.499999999999998
    vertex 0.8000000000000002 12.999999999999998 14.499999999999998
    vertex -2.6437185773886536e-16 12.999999999999996 14.499999999999998
  endloop
endfacet
facet normal 0.0 0.0 1.0
  outer loop
    vertex 0.8000000000000002 12.999999999999998 14.499999999999998
    vertex 0.0 0.0 14.499999999999998
    vertex 0.8000000000000002 0.8000000000000002 14.499999999999998
  endloop
endfacet
facet normal 0.0 0.0 1.0
  outer loop
    vertex 96.0 3.524958103184872e-16 14.499999999999998
    vertex 0.8000000000000002 0.8000000000000002 14.499999999999998
    vertex 0.0 0.0 14.499999999999998
  endloop
endfacet
facet normal 0.0 0.0 1.0
  outer loop
    vertex 0.8000000000000002 0.8000000000000002 14.499999999999998
    vertex 96.0 3.524958103184872e-16 14.499999999999998
    vertex 95.19999999999999 0.8000000000000005 14.499999999999998
  endloop
endfacet
facet normal 0.0 0.0 1.0
  outer loop
    vertex 95.19999999999999 0.8000000000000005 14.499999999999998
    vertex 96.0 3.524958103184872e-16 14.499999999999998
    vertex 95.19999999999999 50.199999999999996 14.499999999999998
  endloop
endfacet
facet normal 0.0 0.0 1.0
  outer loop
    vertex 95.19999999999999 50.199999999999996 14.499999999999998
    vertex 94.0 51.0 14.499999999999998
    vertex 94.0 50.199999999999996 14.499999999999998
  endloop
endfacet
facet normal 0.0 0.0 1.0
  outer loop
    vertex 94.0 51.0 14.499999999999998
    vertex 95.19999999999999 50.199999999999996 14.499999999999998
    vertex 96.0 51.0 14.499999999999998
  endloop
endfacet
facet normal 0.0 0.0 1.0
  outer loop
    vertex 96.0 51.0 14.499999999999998
    vertex 95.19999999999999 50.199999999999996 14.499999999999998
    vertex 96.0 3.524958103184872e-16 14.499999999999998
  endloop
endfacet
facet normal 0.0 -1.0 0.0
  outer loop
    vertex 94.5 21.5 9.5
    vertex 93.0 21.5 1.9999999999999998
    vertex 94.5 21.5 1.9999999999999998
  endloop
endfacet
facet normal 0.0 -1.0 0.0
  outer loop
    vertex 93.0 21.5 1.9999999999999998
    vertex 94.5 21.5 9.5
    vertex 93.0 21.5 9.5
  endloop
endfacet
facet normal 0.0 0.0 1.0
  outer loop
    vertex 96.0 33.5 7.5
    vertex 94.5 48.5 7.5
    vertex 94.5 33.5 7.5
  endloop
endfacet
facet normal 0.0 0.0 1.0
  outer loop
    vertex 94.5 48.5 7.5
    vertex 96.0 33.5 7.5
    vertex 96.0 48.5 7.5
  endloop
endfacet
facet normal 0.0 0.0 1.0
  outer loop
    vertex 94.5 21.5 9.5
    vertex 93.0 31.5 9.5
    vertex 93.0 21.5 9.5
  endloop
endfacet
facet normal 0.0 0.0 1.0
  outer loop
    vertex 93.0 31.5 9.5
    vertex 94.5 21.5 9.5
    vertex 94.5 31.5 9.5
  endloop
endfacet
facet normal -1.0 0.0 0.0
  outer loop
    vertex 94.0 31.499999999999993 12.499999999999998
    vertex 94.0 1.5 11.699999999999998
    vertex 94.0 1.5 12.499999999999998
  endloop
endfacet
facet normal -1.0 0.0 0.0
  outer loop
    vertex 94.0 1.5 11.699999999999998
    vertex 94.0 31.499999999999993 12.499999999999998
    vertex 94.0 31.499999999999993 11.699999999999998
  endloop
endfacet
facet normal 0.0 0.0 1.0
  outer loop
    vertex 94.5 1.5 12.499999999999998
    vertex 94.0 31.499999999999993 12.499999999999998
    vertex 94.0 1.5 12.499999999999998
  endloop
endfacet
facet normal 0.0 0.0 1.0
  outer loop
    vertex 94.0 31.499999999999993 12.499999999999998
    vertex 94.5 1.5 12.499999999999998
    vertex 94.5 31.499999999999993 12.499999999999998
  endloop
endfacet
facet normal -0.0 -1.0 -0.0
  outer loop
    vertex 96.0 48.5 9.799999999999999
    vertex 94.5 48.5 7.5
    vertex 96.0 48.5 7.5
  endloop
endfacet
facet normal -0.0 -1.0 -0.0
  outer loop
    vertex 94.5 48.5 7.5
    vertex 96.0 48.5 9.799999999999999
    vertex 94.5 48.5 9.799999999999999
  endloop
endfacet
facet normal 0.0 1.0 0.0
  outer loop
    vertex 94.0 31.499999999999993 12.499999999999998
    vertex 94.5 31.499999999999993 11.699999999999998
    vertex 94.0 31.499999999999993 11.699999999999998
  endloop
endfacet
facet normal 0.0 1.0 0.0
  outer loop
    vertex 94.5 31.499999999999993 11.699999999999998
    vertex 94.0 31.499999999999993 12.499999999999998
    vertex 94.5 31.499999999999993 12.499999999999998
  endloop
endfacet
facet normal 1.253318436687957e-15 1.0 -4.0047969473356386e-16
  outer loop
    vertex 93.0 31.5 9.5
    vertex 94.5 31.499999999999993 1.9999999999999998
    vertex 93.0 31.5 1.9999999999999998
  endloop
endfacet
facet normal 1.253318436687957e-15 1.0 -4.0047969473356386e-16
  outer loop
    vertex 94.5 31.499999999999993 1.9999999999999998
    vertex 93.0 31.5 9.5
    vertex 94.5 31.5 9.5
  endloop
endfacet
facet normal 0.0 0.0 -1.0
  outer loop
    vertex 94.0 50.199999999999996 14.999999999999998
    vertex 85.0 49.5 14.999999999999998
    vertex 85.0 50.199999999999996 14.999999999999998
  endloop
endfacet
facet normal 0.0 0.0 -1.0
  outer loop
    vertex 85.0 49.5 14.999999999999998
    vertex 94.0 50.199999999999996 14.999999999999998
    vertex 94.0 49.5 14.999999999999998
  endloop
endfacet
facet normal -1.0225173946570243e-17 1.0 -1.604474975361386e-17
  outer loop
    vertex 1.5 1.5 16.499999999999996
    vertex 62.5 1.5 9.5
    vertex 1.4999999999999993 1.4999999999999982 9.5
  endloop
endfacet
facet normal -1.0225173946570243e-17 1.0 -1.604474975361386e-17
  outer loop
    vertex 62.5 1.5 9.5
    vertex 1.5 1.5 16.499999999999996
    vertex 94.0 1.5 11.699999999999998
  endloop
endfacet
facet normal -1.0225173946570243e-17 1.0 -1.604474975361386e-17
  outer loop
    vertex 94.0 1.5 11.699999999999998
    vertex 1.5 1.5 16.499999999999996
    vertex 94.0 1.5 12.499999999999998
  endloop
endfacet
facet normal -1.0225173946570243e-17 1.0 -1.604474975361386e-17
  outer loop
    vertex 94.0 1.5 12.499999999999998
    vertex 1.5 1.5 16.499999999999996
    vertex 94.5 1.5 12.499999999999998
  endloop
endfacet
facet normal -1.0225173946570243e-17 1.0 -1.604474975361386e-17
  outer loop
    vertex 94.5 1.5 12.499999999999998
    vertex 1.5 1.5 16.499999999999996
    vertex 94.5 1.5 16.499999999999996
  endloop
endfacet
facet normal -1.0225173946570243e-17 1.0 -1.604474975361386e-17
  outer loop
    vertex 62.5 1.5 9.5
    vertex 94.5 1.5 1.9999999999999998
    vertex 62.5 1.5 1.9999999999999996
  endloop
endfacet
facet normal -1.0225173946570243e-17 1.0 -1.604474975361386e-17
  outer loop
    vertex 94.5 1.5 1.9999999999999998
    vertex 62.5 1.5 9.5
    vertex 94.5 1.5 11.699999999999998
  endloop
endfacet
facet normal -1.0225173946570243e-17 1.0 -1.604474975361386e-17
  outer loop
    vertex 94.5 1.5 11.699999999999998
    vertex 62.5 1.5 9.5
    vertex 94.0 1.5 11.699999999999998
  endloop
endfacet
facet normal 1.0 8.322329792756477e-18 -1.0314925939733276e-16
  outer loop
    vertex 1.4999999999999993 1.4999999999999982 9.5
    vertex 1.4999999999999993 3.5000000000000036 11.699999999999998
    vertex 1.5 1.5 16.499999999999996
  endloop
endfacet
facet normal 1.0 8.322329792756477e-18 -1.0314925939733276e-16
  outer loop
    vertex 1.4999999999999993 3.5000000000000036 11.699999999999998
    vertex 1.4999999999999993 1.4999999999999982 9.5
    vertex 1.4999999999999993 12.999999999999998 10.999999999999998
  endloop
endfacet
facet normal 1.0 8.322329792756477e-18 -1.0314925939733276e-16
  outer loop
    vertex 1.4999999999999993 12.999999999999998 10.999999999999998
    vertex 1.4999999999999993 1.4999999999999982 9.5
    vertex 1.4999999999999991 49.5 9.5
  endloop
endfacet
facet normal 1.0 8.322329792756477e-18 -1.0314925939733276e-16
  outer loop
    vertex 1.4999999999999993 3.5000000000000036 11.699999999999998
    vertex 1.4999999999999993 12.999999999999998 10.999999999999998
    vertex 1.4999999999999993 9.500000000000004 11.699999999999998
  endloop
endfacet
facet normal 1.0 8.322329792756477e-18 -1.0314925939733276e-16
  outer loop
    vertex 1.4999999999999993 9.500000000000004 11.699999999999998
    vertex 1.4999999999999993 12.999999999999998 10.999999999999998
    vertex 1.4999999999999993 9.500000000000004 12.499999999999998
  endloop
endfacet
facet normal 1.0 8.322329792756477e-18 -1.0314925939733276e-16
  outer loop
    vertex 1.4999999999999993 12.999999999999998 10.999999999999998
    vertex 1.4999999999999991 49.5 9.5
    vertex 1.4999999999999993 26.99999999999999 10.999999999999998
  endloop
endfacet
facet normal 1.0 8.322329792756477e-18 -1.0314925939733276e-16
  outer loop
    vertex 1.4999999999999993 26.99999999999999 10.999999999999998
    vertex 1.4999999999999991 49.5 9.5
    vertex 1.4999999999999991 31.499999999999993 11.699999999999998
  endloop
endfacet
facet normal 1.0 8.322329792756477e-18 -1.0314925939733276e-16
  outer loop
    vertex 1.4999999999999993 26.99999999999999 10.999999999999998
    vertex 1.4999999999999991 31.499999999999993 11.699999999999998
    vertex 1.4999999999999993 26.99999999999999 15.5
  endloop
endfacet
facet normal 1.0 8.322329792756477e-18 -1.0314925939733276e-16
  outer loop
    vertex 1.4999999999999991 31.499999999999993 11.699999999999998
    vertex 1.4999999999999991 49.5 9.5
    vertex 1.4999999999999991 37.49999999999999 11.699999999999998
  endloop
endfacet
facet normal 1.0 8.322329792756477e-18 -1.0314925939733276e-16
  outer loop
    vertex 1.4999999999999991 37.49999999999999 11.699999999999998
    vertex 1.4999999999999991 49.5 9.5
    vertex 1.4999999999999991 37.49999999999999 12.499999999999998
  endloop
endfacet
facet normal 1.0 8.322329792756477e-18 -1.0314925939733276e-16
  outer loop
    vertex 1.5 1.5 16.499999999999996
    vertex 1.4999999999999993 12.999999999999998 15.499999999999996
    vertex 1.5 49.5 16.499999999999996
  endloop
endfacet
facet normal 1.0 8.322329792756477e-18 -1.0314925939733276e-16
  outer loop
    vertex 1.4999999999999993 12.999999999999998 15.499999999999996
    vertex 1.5 1.5 16.499999999999996
    vertex 1.4999999999999993 3.5000000000000036 12.499999999999998
  endloop
endfacet
facet normal 1.0 8.322329792756477e-18 -1.0314925939733276e-16
  outer loop
    vertex 1.4999999999999993 3.5000000000000036 12.499999999999998
    vertex 1.5 1.5 16.499999999999996
    vertex 1.4999999999999993 3.5000000000000036 11.699999999999998
  endloop
endfacet
facet normal 1.0 8.322329792756477e-18 -1.0314925939733276e-16
  outer loop
    vertex 1.4999999999999993 12.999999999999998 15.499999999999996
    vertex 1.4999999999999993 3.5000000000000036 12.499999999999998
    vertex 1.4999999999999993 9.500000000000004 12.499999999999998
  endloop
endfacet
facet normal 1.0 8.322329792756477e-18 -1.0314925939733276e-16
  outer loop
    vertex 1.4999999999999993 12.999999999999998 15.499999999999996
    vertex 1.4999999999999993 9.500000000000004 12.499999999999998
    vertex 1.4999999999999993 12.999999999999998 10.999999999999998
  endloop
endfacet
facet normal 1.0 8.322329792756477e-18 -1.0314925939733276e-16
  outer loop
    vertex 1.5 49.5 16.499999999999996
    vertex 1.4999999999999993 12.999999999999998 15.499999999999996
    vertex 1.4999999999999993 26.99999999999999 15.5
  endloop
endfacet
facet normal 1.0 8.322329792756477e-18 -1.0314925939733276e-16
  outer loop
    vertex 1.5 49.5 16.499999999999996
    vertex 1.4999999999999993 26.99999999999999 15.5
    vertex 1.4999999999999991 31.499999999999993 12.499999999999998
  endloop
endfacet
facet normal 1.0 8.322329792756477e-18 -1.0314925939733276e-16
  outer loop
    vertex 1.4999999999999991 31.499999999999993 12.499999999999998
    vertex 1.4999999999999993 26.99999999999999 15.5
    vertex 1.4999999999999991 31.499999999999993 11.699999999999998
  endloop
endfacet
facet normal 1.0 8.322329792756477e-18 -1.0314925939733276e-16
  outer loop
    vertex 1.5 49.5 16.499999999999996
    vertex 1.4999999999999991 31.499999999999993 12.499999999999998
    vertex 1.4999999999999991 37.49999999999999 12.499999999999998
  endloop
endfacet
facet normal 1.0 8.322329792756477e-18 -1.0314925939733276e-16
  outer loop
    vertex 1.5 49.5 16.499999999999996
    vertex 1.4999999999999991 37.49999999999999 12.499999999999998
    vertex 1.4999999999999991 49.5 9.5
  endloop
endfacet
facet normal 0.0 1.0 0.0
  outer loop
    vertex 94.5 33.5 9.799999999999999
    vertex 96.0 33.5 7.5
    vertex 94.5 33.5 7.5
  endloop
endfacet
facet normal 0.0 1.0 0.0
  outer loop
    vertex 96.0 33.5 7.5
    vertex 94.5 33.5 9.799999999999999
    vertex 96.0 33.5 9.799999999999999
  endloop
endfacet
facet normal 0.0 0.0 -1.0
  outer loop
    vertex 96.0 48.5 9.799999999999999
    vertex 94.5 33.5 9.799999999999999
    vertex 94.5 48.5 9.799999999999999
  endloop
endfacet
facet normal 0.0 0.0 -1.0
  outer loop
    vertex 94.5 33.5 9.799999999999999
    vertex 96.0 48.5 9.799999999999999
    vertex 96.0 33.5 9.799999999999999
  endloop
endfacet
facet normal -1.0 0.0 0.0
  outer loop
    vertex 94.5 1.5 11.699999999999998
    vertex 94.5 21.5 9.5
    vertex 94.5 1.5 1.9999999999999998
  endloop
endfacet
facet normal -1.0 0.0 0.0
  outer loop
    vertex 94.5 21.5 9.5
    vertex 94.5 1.5 11.699999999999998
    vertex 94.5 31.499999999999993 11.699999999999998
  endloop
endfacet
facet normal -1.0 0.0 0.0
  outer loop
    vertex 94.5 21.5 9.5
    vertex 94.5 31.499999999999993 11.699999999999998
    vertex 94.5 31.5 9.5
  endloop
endfacet
facet normal -1.0 0.0 0.0
  outer loop
    vertex 94.5 49.5 16.499999999999996
    vertex 94.5 1.5 12.499999999999998
    vertex 94.5 1.5 16.499999999999996
  endloop
endfacet
facet normal -1.0 0.0 0.0
  outer loop
    vertex 94.5 1.5 12.499999999999998
    vertex 94.5 49.5 16.499999999999996
    vertex 94.5 31.499999999999993 12.499999999999998
  endloop
endfacet
facet normal -1.0 0.0 0.0
  outer loop
    vertex 94.5 31.499999999999993 12.499999999999998
    vertex 94.5 49.5 16.499999999999996
    vertex 94.5 31.499999999999993 11.699999999999998
  endloop
endfacet
facet normal -1.0 0.0 0.0
  outer loop
    vertex 94.5 31.499999999999993 11.699999999999998
    vertex 94.5 49.5 16.499999999999996
    vertex 94.5 31.5 9.5
  endloop
endfacet
facet normal -1.0 0.0 0.0
  outer loop
    vertex 94.5 31.5 9.5
    vertex 94.5 49.5 16.499999999999996
    vertex 94.5 33.5 9.799999999999999
  endloop
endfacet
facet normal -1.0 0.0 0.0
  outer loop
    vertex 94.5 33.5 9.799999999999999
    vertex 94.5 49.5 16.499999999999996
    vertex 94.5 48.5 9.799999999999999
  endloop
endfacet
facet normal -1.0 0.0 0.0
  outer loop
    vertex 94.5 48.5 9.799999999999999
    vertex 94.5 49.5 16.499999999999996
    vertex 94.5 48.5 7.5
  endloop
endfacet
facet normal -1.0 0.0 0.0
  outer loop
    vertex 94.5 31.499999999999993 1.9999999999999998
    vertex 94.5 33.5 7.5
    vertex 94.5 49.5 1.9999999999999998
  endloop
endfacet
facet normal -1.0 0.0 0.0
  outer loop
    vertex 94.5 33.5 7.5
    vertex 94.5 31.499999999999993 1.9999999999999998
    vertex 94.5 31.5 9.5
  endloop
endfacet
facet normal -1.0 0.0 0.0
  outer loop
    vertex 94.5 33.5 7.5
    vertex 94.5 31.5 9.5
    vertex 94.5 33.5 9.799999999999999
  endloop
endfacet
facet normal -1.0 0.0 0.0
  outer loop
    vertex 94.5 49.5 1.9999999999999998
    vertex 94.5 33.5 7.5
    vertex 94.5 48.5 7.5
  endloop
endfacet
facet normal -1.0 0.0 0.0
  outer loop
    vertex 94.5 49.5 1.9999999999999998
    vertex 94.5 48.5 7.5
    vertex 94.5 49.5 16.499999999999996
  endloop
endfacet
facet normal -1.0 0.0 0.0
  outer loop
    vertex 94.5 49.5 1.9999999999999998
    vertex 94.5 49.5 16.499999999999996
    vertex 94.5 49.5 11.499999999999998
  endloop
endfacet
facet normal -1.0 0.0 0.0
  outer loop
    vertex 94.5 21.5 1.9999999999999998
    vertex 94.5 1.5 1.9999999999999998
    vertex 94.5 21.5 9.5
  endloop
endfacet
facet normal 0.0 0.0 -1.0
  outer loop
    vertex 1.9999999999999991 9.500000000000004 11.699999999999998
    vertex 1.4999999999999993 3.5000000000000036 11.699999999999998
    vertex 1.4999999999999993 9.500000000000004 11.699999999999998
  endloop
endfacet
facet normal 0.0 0.0 -1.0
  outer loop
    vertex 1.4999999999999993 3.5000000000000036 11.699999999999998
    vertex 1.9999999999999991 9.500000000000004 11.699999999999998
    vertex 1.9999999999999991 3.5000000000000036 11.699999999999998
  endloop
endfacet
facet normal 1.0 1.4687325429936964e-17 -8.812395257962183e-17
  outer loop
    vertex 1.9999999999999991 37.49999999999999 11.699999999999998
    vertex 1.9999999999999991 31.499999999999993 12.499999999999998
    vertex 1.9999999999999991 31.499999999999993 11.699999999999998
  endloop
endfacet
facet normal 1.0 1.4687325429936964e-17 -8.812395257962183e-17
  outer loop
    vertex 1.9999999999999991 31.499999999999993 12.499999999999998
    vertex 1.9999999999999991 37.49999999999999 11.699999999999998
    vertex 1.9999999999999991 37.49999999999999 12.499999999999998
  endloop
endfacet
facet normal 1.4687325429936964e-17 -1.0 0.0
  outer loop
    vertex 1.9999999999999991 31.499999999999993 12.499999999999998
    vertex 1.4999999999999991 31.499999999999993 11.699999999999998
    vertex 1.9999999999999991 31.499999999999993 11.699999999999998
  endloop
endfacet
facet normal 1.4687325429936964e-17 -1.0 0.0
  outer loop
    vertex 1.4999999999999991 31.499999999999993 11.699999999999998
    vertex 1.9999999999999991 31.499999999999993 12.499999999999998
    vertex 1.4999999999999991 31.499999999999993 12.499999999999998
  endloop
endfacet
facet normal 0.0 1.0 0.0
  outer loop
    vertex 1.4999999999999993 9.500000000000004 12.499999999999998
    vertex 1.9999999999999991 9.500000000000004 11.699999999999998
    vertex 1.4999999999999993 9.500000000000004 11.699999999999998
  endloop
endfacet
facet normal 0.0 1.0 0.0
  outer loop
    vertex 1.9999999999999991 9.500000000000004 11.699999999999998
    vertex 1.4999999999999993 9.500000000000004 12.499999999999998
    vertex 1.9999999999999991 9.500000000000004 12.499999999999998
  endloop
endfacet
facet normal 1.0 0.0 0.0
  outer loop
    vertex 1.9999999999999991 9.500000000000004 11.699999999999998
    vertex 1.9999999999999991 3.5000000000000036 12.499999999999998
    vertex 1.9999999999999991 3.5000000000000036 11.699999999999998
  endloop
endfacet
facet normal 1.0 0.0 0.0
  outer loop
    vertex 1.9999999999999991 3.5000000000000036 12.499999999999998
    vertex 1.9999999999999991 9.500000000000004 11.699999999999998
    vertex 1.9999999999999991 9.500000000000004 12.499999999999998
  endloop
endfacet
facet normal -8.812395257962184e-17 -2.5886103394184784e-33 -1.0
  outer loop
    vertex 1.9999999999999991 37.49999999999999 11.699999999999998
    vertex 1.4999999999999991 31.499999999999993 11.699999999999998
    vertex 1.4999999999999991 37.49999999999999 11.699999999999998
  endloop
endfacet
facet normal -8.812395257962184e-17 -2.5886103394184784e-33 -1.0
  outer loop
    vertex 1.4999999999999991 31.499999999999993 11.699999999999998
    vertex 1.9999999999999991 37.49999999999999 11.699999999999998
    vertex 1.9999999999999991 31.499999999999993 11.699999999999998
  endloop
endfacet
facet normal 0.0 0.0 1.0
  outer loop
    vertex 1.9999999999999991 3.5000000000000036 12.499999999999998
    vertex 1.4999999999999993 9.500000000000004 12.499999999999998
    vertex 1.4999999999999993 3.5000000000000036 12.499999999999998
  endloop
endfacet
facet normal 0.0 0.0 1.0
  outer loop
    vertex 1.4999999999999993 9.500000000000004 12.499999999999998
    vertex 1.9999999999999991 3.5000000000000036 12.499999999999998
    vertex 1.9999999999999991 9.500000000000004 12.499999999999998
  endloop
endfacet
facet normal -1.4687325429936964e-17 1.0 2.5886103394184777e-33
  outer loop
    vertex 1.4999999999999991 37.49999999999999 12.499999999999998
    vertex 1.9999999999999991 37.49999999999999 11.699999999999998
    vertex 1.4999999999999991 37.49999999999999 11.699999999999998
  endloop
endfacet
facet normal -1.4687325429936964e-17 1.0 2.5886103394184777e-33
  outer loop
    vertex 1.9999999999999991 37.49999999999999 11.699999999999998
    vertex 1.4999999999999991 37.49999999999999 12.499999999999998
    vertex 1.9999999999999991 37.49999999999999 12.499999999999998
  endloop
endfacet
facet normal -0.0 -1.0 -0.0
  outer loop
    vertex 1.9999999999999991 3.5000000000000036 12.499999999999998
    vertex 1.4999999999999993 3.5000000000000036 11.699999999999998
    vertex 1.9999999999999991 3.5000000000000036 11.699999999999998
  endloop
endfacet
facet normal -0.0 -1.0 -0.0
  outer loop
    vertex 1.4999999999999993 3.5000000000000036 11.699999999999998
    vertex 1.9999999999999991 3.5000000000000036 12.499999999999998
    vertex 1.4999999999999993 3.5000000000000036 12.499999999999998
  endloop
endfacet
facet normal 8.812395257962184e-17 0.0 1.0
  outer loop
    vertex 1.9999999999999991 31.499999999999993 12.499999999999998
    vertex 1.4999999999999991 37.49999999999999 12.499999999999998
    vertex 1.4999999999999991 31.499999999999993 12.499999999999998
  endloop
endfacet
facet normal 8.812395257962184e-17 0.0 1.0
  outer loop
    vertex 1.4999999999999991 37.49999999999999 12.499999999999998
    vertex 1.9999999999999991 31.499999999999993 12.499999999999998
    vertex 1.9999999999999991 37.49999999999999 12.499999999999998
  endloop
endfacet
endsolid case_emg
