solid case_emg
facet normal 0.0 0.0 1.0
  outer loop
    vertex 0.7 82.59460097221609 6.000000000000002
    vertex 0.0 91.09460097221609 6.000000000000002
    vertex 0.0 82.59460097221609 6.000000000000002
  endloop
endfacet
facet normal 0.0 0.0 1.0
  outer loop
    vertex 0.0 91.09460097221609 6.000000000000002
    vertex 0.7 82.59460097221609 6.000000000000002
    vertex 0.7 91.09460097221609 6.000000000000002
  endloop
endfacet
facet normal -4.6987833752073085e-21 -4.467380107976895e-18 1.0
  outer loop
    vertex 93.0 58.09460097221607 1.9999999999999998
    vertex 1.5 105.09460097221607 2.0
    vertex 1.5 58.09460097221607 1.9999999999999998
  endloop
endfacet
facet normal -4.6987833752073085e-21 -4.467380107976895e-18 1.0
  outer loop
    vertex 1.5 105.09460097221607 2.0
    vertex 93.0 58.09460097221607 1.9999999999999998
    vertex 93.0 105.09460097221607 2.0
  endloop
endfacet
facet normal 0.0 -1.0 0.0
  outer loop
    vertex 93.8 105.89460097221608 7.000000000000001
    vertex 0.7 105.89460097221608 4.000000000000007
    vertex 93.8 105.89460097221608 4.000000000000007
  endloop
endfacet
facet normal 0.0 -1.0 0.0
  outer loop
    vertex 0.7 105.89460097221608 4.000000000000007
    vertex 93.8 105.89460097221608 7.000000000000001
    vertex 0.7 105.89460097221608 7.000000000000001
  endloop
endfacet
facet normal 0.0 0.0 1.0
  outer loop
    vertex 0.0 56.59460097221608 7.000000000000001
    vertex 0.7 57.294600972216074 7.000000000000001
    vertex 0.0 82.59460097221609 7.000000000000001
  endloop
endfacet
facet normal 0.0 0.0 1.0
  outer loop
    vertex 0.7 57.294600972216074 7.000000000000001
    vertex 0.0 56.59460097221608 7.000000000000001
    vertex 83.5 56.59460097221608 7.000000000000001
  endloop
endfacet
facet normal 0.0 0.0 1.0
  outer loop
    vertex 0.7 57.294600972216074 7.000000000000001
    vertex 83.5 56.59460097221608 7.000000000000001
    vertex 83.5 57.294600972216074 7.000000000000001
  endloop
endfacet
facet normal 0.0 0.0 1.0
  outer loop
    vertex 0.7 82.59460097221609 7.000000000000001
    vertex 0.0 82.59460097221609 7.000000000000001
    vertex 0.7 57.294600972216074 7.000000000000001
  endloop
endfacet
facet normal 1.0 0.0 0.0
  outer loop
    vertex 83.5 57.294600972216074 6.500000000000001
    vertex 83.5 56.59460097221608 7.000000000000001
    vertex 83.5 56.59460097221608 6.500000000000001
  endloop
endfacet
facet normal 1.0 0.0 0.0
  outer loop
    vertex 83.5 56.59460097221608 7.000000000000001
    vertex 83.5 57.294600972216074 6.500000000000001
    vertex 83.5 57.294600972216074 7.000000000000001
  endloop
endfacet
facet normal 0.0 1.0 0.0
  outer loop
    vertex 0.0 106.5946009722161 7.000000000000001
    vertex 94.5 106.5946009722161 3.524958103184872e-16
    vertex 0.0 106.5946009722161 3.524958103184872e-16
  endloop
endfacet
facet normal 0.0 1.0 0.0
  outer loop
    vertex 94.5 106.5946009722161 3.524958103184872e-16
    vertex 0.0 106.5946009722161 7.000000000000001
    vertex 94.5 106.5946009722161 7.000000000000001
  endloop
endfacet
facet normal 0.0 -1.0 0.0
  outer loop
    vertex 0.7 91.09460097221609 7.000000000000001
    vertex 0.0 91.09460097221609 6.000000000000002
    vertex 0.7 91.09460097221609 6.000000000000002
  endloop
endfacet
facet normal 0.0 -1.0 0.0
  outer loop
    vertex 0.0 91.09460097221609 6.000000000000002
    vertex 0.7 91.09460097221609 7.000000000000001
    vertex 0.0 91.09460097221609 7.000000000000001
  endloop
endfacet
facet normal 0.0 -1.0 0.0
  outer loop
    vertex 94.5 56.59460097221608 0.0
    vertex 92.5 56.59460097221608 6.500000000000001
    vertex 0.0 56.59460097221608 0.0
  endloop
endfacet
facet normal 0.0 -1.0 0.0
  outer loop
    vertex 92.5 56.59460097221608 6.500000000000001
    vertex 94.5 56.59460097221608 0.0
    vertex 94.5 56.59460097221608 7.000000000000001
  endloop
endfacet
facet normal 0.0 -1.0 0.0
  outer loop
    vertex 92.5 56.59460097221608 6.500000000000001
    vertex 94.5 56.59460097221608 7.000000000000001
    vertex 92.5 56.59460097221608 7.000000000000001
  endloop
endfacet
facet normal 0.0 -1.0 0.0
  outer loop
    vertex 0.0 56.59460097221608 0.0
    vertex 83.5 56.59460097221608 6.500000000000001
    vertex 0.0 56.59460097221608 7.000000000000001
  endloop
endfacet
facet normal 0.0 -1.0 0.0
  outer loop
    vertex 83.5 56.59460097221608 6.500000000000001
    vertex 0.0 56.59460097221608 0.0
    vertex 92.5 56.59460097221608 6.500000000000001
  endloop
endfacet
facet normal 0.0 -1.0 0.0
  outer loop
    vertex 0.0 56.59460097221608 7.000000000000001
    vertex 83.5 56.59460097221608 6.500000000000001
    vertex 83.5 56.59460097221608 7.000000000000001
  endloop
endfacet
facet normal 1.0 -4.6812710393115195e-17 -5.371364728662678e-16
  outer loop
    vertex 94.5 106.5946009722161 3.524958103184872e-16
    vertex 94.5 56.59460097221608 7.000000000000001
    vertex 94.5 56.59460097221608 0.0
  endloop
endfacet
facet normal 1.0 -4.6812710393115195e-17 -5.371364728662678e-16
  outer loop
    vertex 94.5 56.59460097221608 7.000000000000001
    vertex 94.5 106.5946009722161 3.524958103184872e-16
    vertex 94.5 106.5946009722161 7.000000000000001
  endloop
endfacet
facet normal 0.0 0.0 1.0
  outer loop
    vertex 92.5 56.59460097221608 6.500000000000001
    vertex 83.5 57.294600972216074 6.500000000000001
    vertex 83.5 56.59460097221608 6.500000000000001
  endloop
endfacet
facet normal 0.0 0.0 1.0
  outer loop
    vertex 83.5 57.294600972216074 6.500000000000001
    vertex 92.5 56.59460097221608 6.500000000000001
    vertex 92.5 57.294600972216074 6.500000000000001
  endloop
endfacet
facet normal 0.0 1.0 0.0
  outer loop
    vertex 0.0 82.59460097221609 7.000000000000001
    vertex 0.7 82.59460097221609 6.000000000000002
    vertex 0.0 82.59460097221609 6.000000000000002
  endloop
endfacet
facet normal 0.0 1.0 0.0
  outer loop
    vertex 0.7 82.59460097221609 6.000000000000002
    vertex 0.0 82.59460097221609 7.000000000000001
    vertex 0.7 82.59460097221609 7.000000000000001
  endloop
endfacet
facet normal 0.0 1.0 0.0
  outer loop
    vertex 0.7 57.294600972216074 7.000000000000001
    vertex 93.8 57.294600972216074 4.000000000000007
    vertex 0.7 57.294600972216074 4.000000000000007
  endloop
endfacet
facet normal 0.0 1.0 0.0
  outer loop
    vertex 93.8 57.294600972216074 4.000000000000007
    vertex 0.7 57.294600972216074 7.000000000000001
    vertex 83.5 57.294600972216074 6.500000000000001
  endloop
endfacet
facet normal 0.0 1.0 0.0
  outer loop
    vertex 83.5 57.294600972216074 6.500000000000001
    vertex 0.7 57.294600972216074 7.000000000000001
    vertex 83.5 57.294600972216074 7.000000000000001
  endloop
endfacet
facet normal 0.0 1.0 0.0
  outer loop
    vertex 93.8 57.294600972216074 4.000000000000007
    vertex 92.5 57.294600972216074 6.500000000000001
    vertex 93.8 57.294600972216074 7.000000000000001
  endloop
endfacet
facet normal 0.0 1.0 0.0
  outer loop
    vertex 92.5 57.294600972216074 6.500000000000001
    vertex 93.8 57.294600972216074 4.000000000000007
    vertex 83.5 57.294600972216074 6.500000000000001
  endloop
endfacet
facet normal 0.0 1.0 0.0
  outer loop
    vertex 93.8 57.294600972216074 7.000000000000001
    vertex 92.5 57.294600972216074 6.500000000000001
    vertex 92.5 57.294600972216074 7.000000000000001
  endloop
endfacet
facet normal -1.0 0.0 0.0
  outer loop
    vertex 92.5 57.294600972216074 7.000000000000001
    vertex 92.5 56.59460097221608 6.500000000000001
    vertex 92.5 56.59460097221608 7.000000000000001
  endloop
endfacet
facet normal -1.0 0.0 0.0
  outer loop
    vertex 92.5 56.59460097221608 6.500000000000001
    vertex 92.5 57.294600972216074 7.000000000000001
    vertex 92.5 57.294600972216074 6.500000000000001
  endloop
endfacet
facet normal -3.3954760032608462e-18 1.5103833098916252e-16 -1.0
  outer loop
    vertex 94.5 106.5946009722161 3.524958103184872e-16
    vertex 0.0 56.59460097221608 0.0
    vertex 0.0 106.5946009722161 3.524958103184872e-16
  endloop
endfacet
facet normal -3.3954760032608462e-18 1.5103833098916252e-16 -1.0
  outer loop
    vertex 0.0 56.59460097221608 0.0
    vertex 94.5 106.5946009722161 3.524958103184872e-16
    vertex 94.5 56.59460097221608 0.0
  endloop
endfacet
facet normal 0.0 1.0 0.0
  outer loop
    vertex 1.5 58.09460097221607 3.999999999999997
    vertex 93.0 58.09460097221607 1.9999999999999998
    vertex 1.5 58.09460097221607 1.9999999999999998
  endloop
endfacet
facet normal 0.0 1.0 0.0
  outer loop
    vertex 93.0 58.09460097221607 1.9999999999999998
    vertex 1.5 58.09460097221607 3.999999999999997
    vertex 93.0 58.09460097221607 3.999999999999997
  endloop
endfacet
facet normal -1.0 0.0 0.0
  outer loop
    vertex 93.8 105.89460097221608 7.000000000000001
    vertex 93.8 57.294600972216074 4.000000000000007
    vertex 93.8 57.294600972216074 7.000000000000001
  endloop
endfacet
facet normal -1.0 0.0 0.0
  outer loop
    vertex 93.8 57.294600972216074 4.000000000000007
    vertex 93.8 105.89460097221608 7.000000000000001
    vertex 93.8 105.89460097221608 4.000000000000007
  endloop
endfacet
facet normal -1.0 1.1791729366069942e-17 1.2322461971765008e-16
  outer loop
    vertex 0.0 106.5946009722161 7.000000000000001
    vertex 0.0 91.09460097221609 6.000000000000002
    vertex 0.0 91.09460097221609 7.000000000000001
  endloop
endfacet
facet normal -1.0 1.1791729366069942e-17 1.2322461971765008e-16
  outer loop
    vertex 0.0 82.59460097221609 7.000000000000001
    vertex 0.0 56.59460097221608 0.0
    vertex 0.0 56.59460097221608 7.000000000000001
  endloop
endfacet
facet normal -1.0 1.1791729366069942e-17 1.2322461971765008e-16
  outer loop
    vertex 0.0 56.59460097221608 0.0
    vertex 0.0 82.59460097221609 7.000000000000001
    vertex 0.0 82.59460097221609 6.000000000000002
  endloop
endfacet
facet normal -1.0 1.1791729366069942e-17 1.2322461971765008e-16
  outer loop
    vertex 0.0 56.59460097221608 0.0
    vertex 0.0 82.59460097221609 6.000000000000002
    vertex 0.0 106.5946009722161 3.524958103184872e-16
  endloop
endfacet
facet normal -1.0 1.1791729366069942e-17 1.2322461971765008e-16
  outer loop
    vertex 0.0 106.5946009722161 3.524958103184872e-16
    vertex 0.0 82.59460097221609 6.000000000000002
    vertex 0.0 91.09460097221609 6.000000000000002
  endloop
endfacet
facet normal -1.0 1.1791729366069942e-17 1.2322461971765008e-16
  outer loop
    vertex 0.0 106.5946009722161 3.524958103184872e-16
    vertex 0.0 91.09460097221609 6.000000000000002
    vertex 0.0 106.5946009722161 7.000000000000001
  endloop
endfacet
facet normal 0.0 -1.0 0.0
  outer loop
    vertex 93.0 105.09460097221607 3.999999999999997
    vertex 1.5 105.09460097221607 2.0
    vertex 93.0 105.09460097221607 2.0
  endloop
endfacet
facet normal 0.0 -1.0 0.0
  outer loop
    vertex 1.5 105.09460097221607 2.0
    vertex 93.0 105.09460097221607 3.999999999999997
    vertex 1.5 105.09460097221607 3.999999999999997
  endloop
endfacet
facet normal -3.803927297547307e-18 -4.5231890159912304e-18 1.0
  outer loop
    vertex 0.7 57.294600972216074 4.000000000000007
    vertex 1.5 58.09460097221607 3.999999999999997
    vertex 0.7 105.89460097221608 4.000000000000007
  endloop
endfacet
facet normal -3.803927297547307e-18 -4.5231890159912304e-18 1.0
  outer loop
    vertex 1.5 58.09460097221607 3.999999999999997
    vertex 0.7 57.294600972216074 4.000000000000007
    vertex 93.8 57.294600972216074 4.000000000000007
  endloop
endfacet
facet normal -3.803927297547307e-18 -4.5231890159912304e-18 1.0
  outer loop
    vertex 1.5 58.09460097221607 3.999999999999997
    vertex 93.8 57.294600972216074 4.000000000000007
    vertex 93.0 58.09460097221607 3.999999999999997
  endloop
endfacet
facet normal -3.803927297547307e-18 -4.5231890159912304e-18 1.0
  outer loop
    vertex 93.0 58.09460097221607 3.999999999999997
    vertex 93.8 57.294600972216074 4.000000000000007
    vertex 93.0 105.09460097221607 3.999999999999997
  endloop
endfacet
facet normal -3.803927297547307e-18 -4.5231890159912304e-18 1.0
  outer loop
    vertex 0.7 105.89460097221608 4.000000000000007
    vertex 1.5 105.09460097221607 3.999999999999997
    vertex 93.8 105.89460097221608 4.000000000000007
  endloop
endfacet
facet normal -3.803927297547307e-18 -4.5231890159912304e-18 1.0
  outer loop
    vertex 1.5 105.09460097221607 3.999999999999997
    vertex 0.7 105.89460097221608 4.000000000000007
    vertex 1.5 58.09460097221607 3.999999999999997
  endloop
endfacet
facet normal -3.803927297547307e-18 -4.5231890159912304e-18 1.0
  outer loop
    vertex 93.8 105.89460097221608 4.000000000000007
    vertex 1.5 105.09460097221607 3.999999999999997
    vertex 93.0 105.09460097221607 3.999999999999997
  endloop
endfacet
facet normal -3.803927297547307e-18 -4.5231890159912304e-18 1.0
  outer loop
    vertex 93.8 105.89460097221608 4.000000000000007
    vertex 93.0 105.09460097221607 3.999999999999997
    vertex 93.8 57.294600972216074 4.000000000000007
  endloop
endfacet
facet normal -1.0 0.0 0.0
  outer loop
    vertex 93.0 105.09460097221607 3.999999999999997
    vertex 93.0 58.09460097221607 1.9999999999999998
    vertex 93.0 58.09460097221607 3.999999999999997
  endloop
endfacet
facet normal -1.0 0.0 0.0
  outer loop
    vertex 93.0 58.09460097221607 1.9999999999999998
    vertex 93.0 105.09460097221607 3.999999999999997
    vertex 93.0 105.09460097221607 2.0
  endloop
endfacet
facet normal 1.0 0.0 0.0
  outer loop
    vertex 0.7 105.89460097221608 4.000000000000007
    vertex 0.7 57.294600972216074 7.000000000000001
    vertex 0.7 57.294600972216074 4.000000000000007
  endloop
endfacet
facet normal 1.0 0.0 0.0
  outer loop
    vertex 0.7 57.294600972216074 7.000000000000001
    vertex 0.7 105.89460097221608 4.000000000000007
    vertex 0.7 82.59460097221609 6.000000000000002
  endloop
endfacet
facet normal 1.0 0.0 0.0
  outer loop
    vertex 0.7 82.59460097221609 6.000000000000002
    vertex 0.7 105.89460097221608 4.000000000000007
    vertex 0.7 91.09460097221609 6.000000000000002
  endloop
endfacet
facet normal 1.0 0.0 0.0
  outer loop
    vertex 0.7 91.09460097221609 6.000000000000002
    vertex 0.7 105.89460097221608 4.000000000000007
    vertex 0.7 91.09460097221609 7.000000000000001
  endloop
endfacet
facet normal 1.0 0.0 0.0
  outer loop
    vertex 0.7 91.09460097221609 7.000000000000001
    vertex 0.7 105.89460097221608 4.000000000000007
    vertex 0.7 105.89460097221608 7.000000000000001
  endloop
endfacet
facet normal 1.0 0.0 0.0
  outer loop
    vertex 0.7 82.59460097221609 7.000000000000001
    vertex 0.7 57.294600972216074 7.000000000000001
    vertex 0.7 82.59460097221609 6.000000000000002
  endloop
endfacet
facet normal 0.0 0.0 1.0
  outer loop
    vertex 94.5 56.59460097221608 7.000000000000001
    vertex 92.5 57.294600972216074 7.000000000000001
    vertex 92.5 56.59460097221608 7.000000000000001
  endloop
endfacet
facet normal 0.0 0.0 1.0
  outer loop
    vertex 92.5 57.294600972216074 7.000000000000001
    vertex 94.5 56.59460097221608 7.000000000000001
    vertex 93.8 57.294600972216074 7.000000000000001
  endloop
endfacet
facet normal 0.0 0.0 1.0
  outer loop
    vertex 93.8 57.294600972216074 7.000000000000001
    vertex 94.5 56.59460097221608 7.000000000000001
    vertex 93.8 105.89460097221608 7.000000000000001
  endloop
endfacet
facet normal 0.0 0.0 1.0
  outer loop
    vertex 0.7 91.09460097221609 7.000000000000001
    vertex 0.0 106.5946009722161 7.000000000000001
    vertex 0.0 91.09460097221609 7.000000000000001
  endloop
endfacet
facet normal 0.0 0.0 1.0
  outer loop
    vertex 0.0 106.5946009722161 7.000000000000001
    vertex 0.7 91.09460097221609 7.000000000000001
    vertex 0.7 105.89460097221608 7.000000000000001
  endloop
endfacet
facet normal 0.0 0.0 1.0
  outer loop
    vertex 0.0 106.5946009722161 7.000000000000001
    vertex 0.7 105.89460097221608 7.000000000000001
    vertex 94.5 106.5946009722161 7.000000000000001
  endloop
endfacet
facet normal 0.0 0.0 1.0
  outer loop
    vertex 94.5 106.5946009722161 7.000000000000001
    vertex 0.7 105.89460097221608 7.000000000000001
    vertex 93.8 105.89460097221608 7.000000000000001
  endloop
endfacet
facet normal 0.0 0.0 1.0
  outer loop
    vertex 94.5 106.5946009722161 7.000000000000001
    vertex 93.8 105.89460097221608 7.000000000000001
    vertex 94.5 56.59460097221608 7.000000000000001
  endloop
endfacet
facet normal 1.0 0.0 0.0
  outer loop
    vertex 1.5 105.09460097221607 2.0
    vertex 1.5 58.09460097221607 3.999999999999997
    vertex 1.5 58.09460097221607 1.9999999999999998
  endloop
endfacet
facet normal 1.0 0.0 0.0
  outer loop
    vertex 1.5 58.09460097221607 3.999999999999997
    vertex 1.5 105.09460097221607 2.0
    vertex 1.5 105.09460097221607 3.999999999999997
  endloop
endfacet
endsolid case_emg
